<?xml version="1.0" encoding="UTF-8"?>
<!DOCTYPE svg PUBLIC "-//W3C//DTD SVG 1.1//EN" "http://www.w3.org/Graphics/SVG/1.1/DTD/svg11.dtd">
<svg xmlns="http://www.w3.org/2000/svg" version="1.1" width="500px" height="500px" style="shape-rendering:geometricPrecision; text-rendering:geometricPrecision; image-rendering:optimizeQuality; fill-rule:evenodd; clip-rule:evenodd" xmlns:xlink="http://www.w3.org/1999/xlink">
<g><path style="opacity:1" fill="#f9f9f900" d="M 67.5,-0.5 C 188.833,-0.5 310.167,-0.5 431.5,-0.5C 469.167,7.16667 491.833,29.8333 499.5,67.5C 499.5,188.833 499.5,310.167 499.5,431.5C 491.909,468.675 469.576,491.342 432.5,499.5C 310.5,499.5 188.5,499.5 66.5,499.5C 29.3794,491.38 7.04602,468.713 -0.5,431.5C -0.5,310.167 -0.5,188.833 -0.5,67.5C 7.16667,29.8333 29.8333,7.16667 67.5,-0.5 Z"/></g>
<g><path style="opacity:1" fill="#dee5e7" d="M 198.5,121.5 C 196.907,120.652 195.74,119.319 195,117.5C 193.442,118.345 192.442,117.679 192,115.5C 190.334,116.34 190.167,115.84 191.5,114C 187.878,111.394 184.212,108.728 180.5,106C 180.833,105.667 181.167,105.333 181.5,105C 179.833,103 178.167,101 176.5,99C 174.975,97.9914 173.308,97.4914 171.5,97.5C 171.881,95.0582 171.214,94.3915 169.5,95.5C 164.476,92.3172 159.809,88.6505 155.5,84.5C 158.203,83.037 161.203,82.2037 164.5,82C 191.5,81.3333 218.5,81.3333 245.5,82C 253.052,84.605 259.385,88.9383 264.5,95C 251.793,95.486 239.126,96.486 226.5,98C 227.308,98.3076 227.975,98.8076 228.5,99.5C 217.084,104.918 207.084,112.252 198.5,121.5 Z"/></g>
<g><path style="opacity:1" fill="#ced7db" d="M 155.5,84.5 C 159.809,88.6505 164.476,92.3172 169.5,95.5C 171.214,94.3915 171.881,95.0582 171.5,97.5C 173.308,97.4914 174.975,97.9914 176.5,99C 178.167,101 179.833,103 181.5,105C 181.167,105.333 180.833,105.667 180.5,106C 184.212,108.728 187.878,111.394 191.5,114C 190.167,115.84 190.334,116.34 192,115.5C 192.442,117.679 193.442,118.345 195,117.5C 195.74,119.319 196.907,120.652 198.5,121.5C 194.595,126.968 190.928,132.635 187.5,138.5C 186.178,138.67 185.011,138.337 184,137.5C 183.692,138.308 183.192,138.975 182.5,139.5C 181.304,139.154 181.304,138.654 182.5,138C 180.919,137.293 179.419,136.46 178,135.5C 177.667,136.5 177.333,137.5 177,138.5C 176.89,135.354 175.557,134.354 173,135.5C 172.667,134.833 172.333,134.167 172,133.5C 170.817,134.731 169.651,134.731 168.5,133.5C 168.709,132.914 169.043,132.414 169.5,132C 167,130.833 165.167,129 164,126.5C 163.667,126.833 163.333,127.167 163,127.5C 160.724,123.967 158.224,121.634 155.5,120.5C 157.997,114.992 161.33,109.992 165.5,105.5C 157.833,104.167 150.167,104.167 142.5,105.5C 141.479,107.188 140.145,108.521 138.5,109.5C 138.294,107.451 137.461,107.117 136,108.5C 134.887,107.24 134.72,106.073 135.5,105C 133.155,104.764 131.155,103.93 129.5,102.5C 136.262,93.737 144.928,87.737 155.5,84.5 Z"/></g>
<g><path style="opacity:1" fill="#427c9a" d="M 361.5,122.5 C 359.376,121.969 357.876,120.635 357,118.5C 356.586,118.957 356.086,119.291 355.5,119.5C 354.479,117.381 352.979,115.714 351,114.5C 348.28,115.311 345.78,115.311 343.5,114.5C 340.945,117.251 339.945,116.584 340.5,112.5C 338.856,112.714 337.356,112.38 336,111.5C 335.149,114.612 333.983,114.946 332.5,112.5C 331.808,113.025 331.308,113.692 331,114.5C 330.51,113.207 330.343,111.873 330.5,110.5C 328.774,110.815 327.107,110.981 325.5,111C 325.167,110.667 324.833,110.333 324.5,110C 326.058,109.79 327.391,109.29 328.5,108.5C 329.738,108.19 329.738,107.69 328.5,107C 319.562,105.452 310.562,105.119 301.5,106C 301.833,106.333 302.167,106.667 302.5,107C 307.036,108.379 311.703,108.879 316.5,108.5C 317.609,109.29 318.942,109.79 320.5,110C 319.167,110.667 319.167,111.333 320.5,112C 318.238,112.642 316.071,113.475 314,114.5C 313.667,114.167 313.333,113.833 313,113.5C 311.527,115.642 309.527,116.976 307,117.5C 296.859,114.913 286.692,114.913 276.5,117.5C 273.049,116.584 269.549,115.918 266,115.5C 261.251,116.285 256.584,116.285 252,115.5C 245.598,117.046 239.764,118.379 234.5,119.5C 229.38,117.701 224.547,117.035 220,117.5C 219.431,121.361 218.598,121.361 217.5,117.5C 216.402,118.615 215.235,118.615 214,117.5C 209.272,121.403 204.772,125.403 200.5,129.5C 211.633,113.429 226.966,104.262 246.5,102C 275.5,101.333 304.5,101.333 333.5,102C 345.267,105.612 354.6,112.446 361.5,122.5 Z"/></g>
<g><path style="opacity:1" fill="#f9f9f9" d="M 155.5,120.5 C 147.804,120.831 140.138,120.497 132.5,119.5C 134.952,116.394 136.952,113.061 138.5,109.5C 140.145,108.521 141.479,107.188 142.5,105.5C 150.167,104.167 157.833,104.167 165.5,105.5C 161.33,109.992 157.997,114.992 155.5,120.5 Z"/></g>
<g><path style="opacity:1" fill="#e3f0f2" d="M 328.5,108.5 C 324.5,108.5 320.5,108.5 316.5,108.5C 311.703,108.879 307.036,108.379 302.5,107C 302.167,106.667 301.833,106.333 301.5,106C 310.562,105.119 319.562,105.452 328.5,107C 329.738,107.69 329.738,108.19 328.5,108.5 Z"/></g>
<g><path style="opacity:1" fill="#3d7595" d="M 316.5,108.5 C 320.5,108.5 324.5,108.5 328.5,108.5C 327.391,109.29 326.058,109.79 324.5,110C 324.833,110.333 325.167,110.667 325.5,111C 327.107,110.981 328.774,110.815 330.5,110.5C 330.343,111.873 330.51,113.207 331,114.5C 331.308,113.692 331.808,113.025 332.5,112.5C 333.983,114.946 335.149,114.612 336,111.5C 337.356,112.38 338.856,112.714 340.5,112.5C 339.945,116.584 340.945,117.251 343.5,114.5C 345.78,115.311 348.28,115.311 351,114.5C 352.979,115.714 354.479,117.381 355.5,119.5C 356.086,119.291 356.586,118.957 357,118.5C 357.876,120.635 359.376,121.969 361.5,122.5C 362.89,123.899 363.89,125.566 364.5,127.5C 364.877,129.258 365.544,130.925 366.5,132.5C 365.609,133.59 364.609,133.59 363.5,132.5C 362.749,133.376 362.249,134.376 362,135.5C 360.513,134.747 360.346,133.914 361.5,133C 359.5,132.667 357.5,132.333 355.5,132C 355.833,131.667 356.167,131.333 356.5,131C 354.593,129.878 352.593,129.045 350.5,128.5C 348.273,126.393 346.273,124.06 344.5,121.5C 335.658,120.178 326.658,120.178 317.5,121.5C 317.624,122.107 317.957,122.44 318.5,122.5C 321.411,125.99 324.078,129.656 326.5,133.5C 324.278,133.822 322.444,133.155 321,131.5C 317.865,132.799 314.699,132.799 311.5,131.5C 308.568,132.699 305.568,133.699 302.5,134.5C 291.825,132.644 281.491,133.644 271.5,137.5C 271.089,136.738 270.923,135.738 271,134.5C 265.936,135.185 260.769,135.185 255.5,134.5C 253.45,135.077 252.45,136.41 252.5,138.5C 248.219,138.563 245.552,136.563 244.5,132.5C 243.5,132.5 242.5,132.5 241.5,132.5C 241.511,130.983 242.177,129.816 243.5,129C 234.814,128.168 226.147,128.335 217.5,129.5C 212.655,135.214 208.322,141.214 204.5,147.5C 203.265,147.721 202.265,148.388 201.5,149.5C 199.878,147.561 198.044,147.228 196,148.5C 194.556,146.845 192.722,146.178 190.5,146.5C 193.065,140.367 196.399,134.701 200.5,129.5C 204.772,125.403 209.272,121.403 214,117.5C 215.235,118.615 216.402,118.615 217.5,117.5C 218.598,121.361 219.431,121.361 220,117.5C 224.547,117.035 229.38,117.701 234.5,119.5C 239.764,118.379 245.598,117.046 252,115.5C 256.584,116.285 261.251,116.285 266,115.5C 269.549,115.918 273.049,116.584 276.5,117.5C 286.692,114.913 296.859,114.913 307,117.5C 309.527,116.976 311.527,115.642 313,113.5C 313.333,113.833 313.667,114.167 314,114.5C 316.071,113.475 318.238,112.642 320.5,112C 319.167,111.333 319.167,110.667 320.5,110C 318.942,109.79 317.609,109.29 316.5,108.5 Z"/></g>
<g><path style="opacity:1" fill="#c0c9ce" d="M 129.5,102.5 C 131.155,103.93 133.155,104.764 135.5,105C 134.72,106.073 134.887,107.24 136,108.5C 137.461,107.117 138.294,107.451 138.5,109.5C 136.952,113.061 134.952,116.394 132.5,119.5C 140.138,120.497 147.804,120.831 155.5,120.5C 158.224,121.634 160.724,123.967 163,127.5C 163.333,127.167 163.667,126.833 164,126.5C 165.167,129 167,130.833 169.5,132C 169.043,132.414 168.709,132.914 168.5,133.5C 169.651,134.731 170.817,134.731 172,133.5C 172.333,134.167 172.667,134.833 173,135.5C 175.557,134.354 176.89,135.354 177,138.5C 177.333,137.5 177.667,136.5 178,135.5C 179.419,136.46 180.919,137.293 182.5,138C 181.304,138.654 181.304,139.154 182.5,139.5C 183.192,138.975 183.692,138.308 184,137.5C 185.011,138.337 186.178,138.67 187.5,138.5C 185.759,140.977 184.259,143.644 183,146.5C 182.275,147.059 181.442,147.392 180.5,147.5C 168.662,144.883 156.662,143.883 144.5,144.5C 144.833,142.5 145.167,140.5 145.5,138.5C 137.833,138.5 130.167,138.5 122.5,138.5C 121.909,141.94 120.909,145.273 119.5,148.5C 114.241,150.863 108.908,152.696 103.5,154C 109.147,135.205 117.814,118.038 129.5,102.5 Z"/></g>
<g><path style="opacity:1" fill="#8fabb9" d="M 344.5,121.5 C 335.651,121.174 326.984,121.507 318.5,122.5C 317.957,122.44 317.624,122.107 317.5,121.5C 326.658,120.178 335.658,120.178 344.5,121.5 Z"/></g>
<g><path style="opacity:1" fill="#f4f7f8" d="M 344.5,121.5 C 346.273,124.06 348.273,126.393 350.5,128.5C 352.097,132.189 354.097,135.689 356.5,139C 347.482,139.832 338.482,139.665 329.5,138.5C 328.237,136.971 327.237,135.305 326.5,133.5C 324.078,129.656 321.411,125.99 318.5,122.5C 326.984,121.507 335.651,121.174 344.5,121.5 Z"/></g>
<g><path style="opacity:1" fill="#f5f7f8" d="M 241.5,132.5 C 237.844,135.803 235.178,139.803 233.5,144.5C 232.609,145.261 231.942,146.261 231.5,147.5C 222.342,148.822 213.342,148.822 204.5,147.5C 208.322,141.214 212.655,135.214 217.5,129.5C 226.147,128.335 234.814,128.168 243.5,129C 242.177,129.816 241.511,130.983 241.5,132.5 Z"/></g>
<g><path style="opacity:1" fill="#39708e" d="M 364.5,127.5 C 368.293,132.316 371.293,137.65 373.5,143.5C 372.542,143.953 371.708,144.619 371,145.5C 369.915,144.707 368.748,144.04 367.5,143.5C 364.5,143.5 361.5,143.5 358.5,143.5C 356.78,144.955 354.78,145.788 352.5,146C 353.5,146.333 354.5,146.667 355.5,147C 350.25,147.193 345.083,147.693 340,148.5C 339.259,147.359 338.425,147.359 337.5,148.5C 336.115,144.622 334.949,144.622 334,148.5C 333.333,147.167 332.667,147.167 332,148.5C 331.517,147.552 331.351,146.552 331.5,145.5C 327.685,146.105 324.018,146.105 320.5,145.5C 320.875,148.907 319.875,149.407 317.5,147C 319.271,146.465 319.604,145.631 318.5,144.5C 313.302,145.143 308.135,145.81 303,146.5C 302.333,145.833 301.667,145.167 301,144.5C 299.247,145.627 297.413,146.627 295.5,147.5C 294.494,147.062 294.494,146.396 295.5,145.5C 290.755,144.609 286.088,145.109 281.5,147C 274.667,147.167 267.833,147.333 261,147.5C 253.666,147.464 246.499,146.797 239.5,145.5C 238.5,146.167 237.5,146.833 236.5,147.5C 235.712,146.23 234.712,145.23 233.5,144.5C 235.178,139.803 237.844,135.803 241.5,132.5C 242.5,132.5 243.5,132.5 244.5,132.5C 245.552,136.563 248.219,138.563 252.5,138.5C 252.45,136.41 253.45,135.077 255.5,134.5C 260.769,135.185 265.936,135.185 271,134.5C 270.923,135.738 271.089,136.738 271.5,137.5C 281.491,133.644 291.825,132.644 302.5,134.5C 305.568,133.699 308.568,132.699 311.5,131.5C 314.699,132.799 317.865,132.799 321,131.5C 322.444,133.155 324.278,133.822 326.5,133.5C 327.237,135.305 328.237,136.971 329.5,138.5C 338.482,139.665 347.482,139.832 356.5,139C 354.097,135.689 352.097,132.189 350.5,128.5C 352.593,129.045 354.593,129.878 356.5,131C 356.167,131.333 355.833,131.667 355.5,132C 357.5,132.333 359.5,132.667 361.5,133C 360.346,133.914 360.513,134.747 362,135.5C 362.249,134.376 362.749,133.376 363.5,132.5C 364.609,133.59 365.609,133.59 366.5,132.5C 365.544,130.925 364.877,129.258 364.5,127.5 Z"/></g>
<g><path style="opacity:1" fill="#366a89" d="M 373.5,143.5 C 376.284,147.405 378.284,151.738 379.5,156.5C 377.932,156.359 376.265,156.026 374.5,155.5C 373.522,155.977 372.689,156.643 372,157.5C 364.1,156.509 355.433,156.509 346,157.5C 344,156.833 342,156.167 340,155.5C 337.845,157.167 335.345,158.167 332.5,158.5C 328.539,157.441 324.539,157.441 320.5,158.5C 318.055,158.597 315.889,157.93 314,156.5C 308.759,157.784 303.593,157.451 298.5,155.5C 294.296,155.951 290.296,156.951 286.5,158.5C 285.5,157.833 284.5,157.167 283.5,156.5C 282.833,156.667 282.167,156.833 281.5,157C 282.833,158.84 282.666,159.34 281,158.5C 271.577,159.32 262.077,159.82 252.5,160C 248.248,161.42 243.915,161.253 239.5,159.5C 235.88,159.881 232.38,159.881 229,159.5C 221.639,161.162 214.139,161.995 206.5,162C 206,162.5 205.5,163 205,163.5C 201.814,162.934 198.314,162.267 194.5,161.5C 191.685,163.235 188.685,163.735 185.5,163C 184.167,162.333 184.167,161.667 185.5,161C 184.906,160.536 184.239,160.369 183.5,160.5C 185.087,155.368 187.421,150.702 190.5,146.5C 192.722,146.178 194.556,146.845 196,148.5C 198.044,147.228 199.878,147.561 201.5,149.5C 202.265,148.388 203.265,147.721 204.5,147.5C 213.342,148.822 222.342,148.822 231.5,147.5C 231.942,146.261 232.609,145.261 233.5,144.5C 234.712,145.23 235.712,146.23 236.5,147.5C 237.5,146.833 238.5,146.167 239.5,145.5C 246.499,146.797 253.666,147.464 261,147.5C 267.833,147.333 274.667,147.167 281.5,147C 286.088,145.109 290.755,144.609 295.5,145.5C 294.494,146.396 294.494,147.062 295.5,147.5C 297.413,146.627 299.247,145.627 301,144.5C 301.667,145.167 302.333,145.833 303,146.5C 308.135,145.81 313.302,145.143 318.5,144.5C 319.604,145.631 319.271,146.465 317.5,147C 319.875,149.407 320.875,148.907 320.5,145.5C 324.018,146.105 327.685,146.105 331.5,145.5C 331.351,146.552 331.517,147.552 332,148.5C 332.667,147.167 333.333,147.167 334,148.5C 334.949,144.622 336.115,144.622 337.5,148.5C 338.425,147.359 339.259,147.359 340,148.5C 345.083,147.693 350.25,147.193 355.5,147C 354.5,146.667 353.5,146.333 352.5,146C 354.78,145.788 356.78,144.955 358.5,143.5C 361.5,143.5 364.5,143.5 367.5,143.5C 368.748,144.04 369.915,144.707 371,145.5C 371.708,144.619 372.542,143.953 373.5,143.5 Z"/></g>
<g><path style="opacity:1" fill="#a7b5bd" d="M 141.5,151.5 C 147.987,150.346 154.654,150.179 161.5,151C 167.731,151.106 173.731,152.106 179.5,154C 173.788,166.651 168.788,179.485 164.5,192.5C 163.275,192.969 162.275,192.302 161.5,190.5C 162.32,188.889 163.654,188.222 165.5,188.5C 165.635,186.446 164.968,184.779 163.5,183.5C 163.48,181.857 164.147,180.524 165.5,179.5C 164,177.167 162.5,174.833 161,172.5C 160.195,174.901 159.362,174.734 158.5,172C 158.833,171.667 159.167,171.333 159.5,171C 157.623,169.815 155.623,168.815 153.5,168C 153.957,167.586 154.291,167.086 154.5,166.5C 153.537,163.717 152.37,161.05 151,158.5C 150,158.5 149,158.5 148,158.5C 146.796,157.529 146.296,156.529 146.5,155.5C 145.522,155.977 144.689,156.643 144,157.5C 143.167,156.667 142.333,155.833 141.5,155C 147.676,152.5 147.676,151.333 141.5,151.5 Z"/></g>
<g><path style="opacity:1" fill="#98aab1" d="M 141.5,151.5 C 147.676,151.333 147.676,152.5 141.5,155C 142.333,155.833 143.167,156.667 144,157.5C 144.689,156.643 145.522,155.977 146.5,155.5C 146.296,156.529 146.796,157.529 148,158.5C 149,158.5 150,158.5 151,158.5C 152.37,161.05 153.537,163.717 154.5,166.5C 154.291,167.086 153.957,167.586 153.5,168C 155.623,168.815 157.623,169.815 159.5,171C 159.167,171.333 158.833,171.667 158.5,172C 159.362,174.734 160.195,174.901 161,172.5C 162.5,174.833 164,177.167 165.5,179.5C 164.147,180.524 163.48,181.857 163.5,183.5C 159.837,181.419 156.67,178.752 154,175.5C 153.667,176.167 153.333,176.833 153,177.5C 152.667,175.833 152.333,174.167 152,172.5C 150.287,171.122 148.953,169.455 148,167.5C 147.667,167.833 147.333,168.167 147,168.5C 146.751,167.376 146.251,166.376 145.5,165.5C 144.742,166.811 143.742,167.311 142.5,167C 143.451,166.282 143.617,165.449 143,164.5C 139.433,161.023 136.1,157.356 133,153.5C 130.944,154.583 129.611,156.25 129,158.5C 128.667,157.833 128.333,157.167 128,156.5C 126.632,158.027 126.132,159.527 126.5,161C 128,161.833 129.167,163 130,164.5C 130.333,163.167 130.667,161.833 131,160.5C 132.952,162.337 133.952,164.671 134,167.5C 134.869,162.492 135.536,162.825 136,168.5C 136.674,167.422 137.674,166.755 139,166.5C 143.612,168.61 147.112,171.944 149.5,176.5C 150.665,177.584 151.998,178.417 153.5,179C 153.167,179.333 152.833,179.667 152.5,180C 153.227,181.399 153.727,182.899 154,184.5C 154.317,182.699 154.984,182.366 156,183.5C 156.667,185.167 156.667,186.833 156,188.5C 151.822,183.959 147.656,180.126 143.5,177C 143.833,176.667 144.167,176.333 144.5,176C 141.659,177.012 140.326,175.845 140.5,172.5C 134.767,170.835 130.6,167.835 128,163.5C 126.333,163.5 124.667,163.5 123,163.5C 122.027,161.608 121.36,159.608 121,157.5C 120.275,159.158 119.108,159.658 117.5,159C 120.113,157.929 120.113,157.095 117.5,156.5C 125.126,153.598 133.126,151.931 141.5,151.5 Z"/></g>
<g><path style="opacity:1" fill="#366480" d="M 379.5,156.5 C 384.673,168.355 388.673,180.688 391.5,193.5C 390.5,193.5 389.5,193.5 388.5,193.5C 388.357,191.738 388.691,190.071 389.5,188.5C 388.286,186.931 386.619,186.098 384.5,186C 385.696,185.346 385.696,184.846 384.5,184.5C 383.997,186.744 382.663,188.078 380.5,188.5C 376.507,188.176 372.84,187.009 369.5,185C 361.587,184.186 353.754,184.353 346,185.5C 345.326,184.422 344.326,183.755 343,183.5C 340.783,184.532 338.617,184.532 336.5,183.5C 335.808,184.025 335.308,184.692 335,185.5C 332.334,184.232 330.834,182.565 330.5,180.5C 331.315,179.571 332.148,178.571 333,177.5C 333.626,179.991 334.459,179.991 335.5,177.5C 336.696,177.846 336.696,178.346 335.5,179C 336.793,179.49 338.127,179.657 339.5,179.5C 339.5,178.5 339.5,177.5 339.5,176.5C 341.124,176.36 342.29,177.027 343,178.5C 343.684,177.216 343.517,176.049 342.5,175C 343.094,174.536 343.761,174.369 344.5,174.5C 346.072,177.215 347.072,180.215 347.5,183.5C 356.525,183.832 365.525,183.498 374.5,182.5C 371.533,174.908 368.867,167.241 366.5,159.5C 357.475,159.168 348.475,159.502 339.5,160.5C 341.37,164.779 343.036,169.112 344.5,173.5C 342.314,172.177 340.814,170.177 340,167.5C 339.15,168.424 338.15,168.424 337,167.5C 336.05,168.022 335.216,168.689 334.5,169.5C 333.604,168.494 332.938,168.494 332.5,169.5C 333.729,170.281 335.062,170.781 336.5,171C 332.113,171.226 327.779,171.726 323.5,172.5C 322.808,171.975 322.308,171.308 322,170.5C 321.612,171.428 320.945,172.095 320,172.5C 315.021,171.749 310.355,171.082 306,170.5C 301.866,171.196 297.7,171.863 293.5,172.5C 289.584,171.662 285.751,171.328 282,171.5C 281.333,174.167 280.667,174.167 280,171.5C 279.311,172.357 278.478,173.023 277.5,173.5C 271.206,173.265 264.54,172.931 257.5,172.5C 249.742,173.117 242.075,174.117 234.5,175.5C 231.078,174.93 227.744,174.93 224.5,175.5C 224.704,174.471 224.204,173.471 223,172.5C 222.333,173.833 221.667,173.833 221,172.5C 220.111,175.687 219.278,178.853 218.5,182C 219.667,182.5 220.5,183.333 221,184.5C 221.519,183.484 222.353,182.818 223.5,182.5C 225.41,183.548 227.244,183.548 229,182.5C 229.333,183.833 229.667,185.167 230,186.5C 230.508,184.096 231.675,183.429 233.5,184.5C 234.281,183.271 234.781,181.938 235,180.5C 235.333,181.167 235.667,181.833 236,182.5C 237.576,183.013 238.909,182.346 240,180.5C 241.597,181.885 243.43,182.551 245.5,182.5C 269.339,182.169 293.006,182.502 316.5,183.5C 290.831,183.333 265.165,183.5 239.5,184C 235.626,185.431 232.293,187.597 229.5,190.5C 228.527,188.553 227.527,186.553 226.5,184.5C 223.5,187.167 220.5,187.167 217.5,184.5C 216.855,186.826 215.522,188.493 213.5,189.5C 215.63,183.113 217.963,176.78 220.5,170.5C 211.833,169.167 203.167,169.167 194.5,170.5C 193.143,173.601 191.81,176.601 190.5,179.5C 190.631,178.761 190.464,178.094 190,177.5C 188.488,179.957 187.154,179.957 186,177.5C 185.026,179.878 184.359,179.544 184,176.5C 182,176.5 180,176.5 178,176.5C 177.333,178.833 177.333,181.167 178,183.5C 178.971,184.198 180.137,184.198 181.5,183.5C 183.167,183.833 184.167,184.833 184.5,186.5C 180.459,187.227 176.459,187.894 172.5,188.5C 175.404,178.775 179.07,169.441 183.5,160.5C 184.239,160.369 184.906,160.536 185.5,161C 184.167,161.667 184.167,162.333 185.5,163C 188.685,163.735 191.685,163.235 194.5,161.5C 198.314,162.267 201.814,162.934 205,163.5C 205.5,163 206,162.5 206.5,162C 214.139,161.995 221.639,161.162 229,159.5C 232.38,159.881 235.88,159.881 239.5,159.5C 243.915,161.253 248.248,161.42 252.5,160C 262.077,159.82 271.577,159.32 281,158.5C 282.666,159.34 282.833,158.84 281.5,157C 282.167,156.833 282.833,156.667 283.5,156.5C 284.5,157.167 285.5,157.833 286.5,158.5C 290.296,156.951 294.296,155.951 298.5,155.5C 303.593,157.451 308.759,157.784 314,156.5C 315.889,157.93 318.055,158.597 320.5,158.5C 324.539,157.441 328.539,157.441 332.5,158.5C 335.345,158.167 337.845,157.167 340,155.5C 342,156.167 344,156.833 346,157.5C 355.433,156.509 364.1,156.509 372,157.5C 372.689,156.643 373.522,155.977 374.5,155.5C 376.265,156.026 377.932,156.359 379.5,156.5 Z"/></g>
<g><path style="opacity:1" fill="#8fa2ae" d="M 163.5,183.5 C 164.968,184.779 165.635,186.446 165.5,188.5C 163.654,188.222 162.32,188.889 161.5,190.5C 162.275,192.302 163.275,192.969 164.5,192.5C 163.943,197.052 162.943,201.385 161.5,205.5C 160.849,206.091 160.182,206.757 159.5,207.5C 158.158,206.098 157.324,206.431 157,208.5C 155.914,206.202 154.414,204.202 152.5,202.5C 151.914,202.709 151.414,203.043 151,203.5C 147.941,200.599 144.774,197.933 141.5,195.5C 134.634,185.231 124.967,179.897 112.5,179.5C 110.072,174.306 107.906,168.972 106,163.5C 105.583,162.244 104.75,161.577 103.5,161.5C 107.895,159.313 112.562,157.646 117.5,156.5C 120.113,157.095 120.113,157.929 117.5,159C 119.108,159.658 120.275,159.158 121,157.5C 121.36,159.608 122.027,161.608 123,163.5C 124.667,163.5 126.333,163.5 128,163.5C 130.6,167.835 134.767,170.835 140.5,172.5C 140.326,175.845 141.659,177.012 144.5,176C 144.167,176.333 143.833,176.667 143.5,177C 147.656,180.126 151.822,183.959 156,188.5C 156.667,186.833 156.667,185.167 156,183.5C 154.984,182.366 154.317,182.699 154,184.5C 153.727,182.899 153.227,181.399 152.5,180C 152.833,179.667 153.167,179.333 153.5,179C 151.998,178.417 150.665,177.584 149.5,176.5C 147.112,171.944 143.612,168.61 139,166.5C 137.674,166.755 136.674,167.422 136,168.5C 135.536,162.825 134.869,162.492 134,167.5C 133.952,164.671 132.952,162.337 131,160.5C 130.667,161.833 130.333,163.167 130,164.5C 129.167,163 128,161.833 126.5,161C 126.132,159.527 126.632,158.027 128,156.5C 128.333,157.167 128.667,157.833 129,158.5C 129.611,156.25 130.944,154.583 133,153.5C 136.1,157.356 139.433,161.023 143,164.5C 143.617,165.449 143.451,166.282 142.5,167C 143.742,167.311 144.742,166.811 145.5,165.5C 146.251,166.376 146.751,167.376 147,168.5C 147.333,168.167 147.667,167.833 148,167.5C 148.953,169.455 150.287,171.122 152,172.5C 152.333,174.167 152.667,175.833 153,177.5C 153.333,176.833 153.667,176.167 154,175.5C 156.67,178.752 159.837,181.419 163.5,183.5 Z"/></g>
<g><path style="opacity:1" fill="#f3f6f6" d="M 344.5,174.5 C 344.5,174.167 344.5,173.833 344.5,173.5C 343.036,169.112 341.37,164.779 339.5,160.5C 348.475,159.502 357.475,159.168 366.5,159.5C 368.867,167.241 371.533,174.908 374.5,182.5C 365.525,183.498 356.525,183.832 347.5,183.5C 347.072,180.215 346.072,177.215 344.5,174.5 Z"/></g>
<g><path style="opacity:1" fill="#305c7c" d="M 344.5,173.5 C 344.5,173.833 344.5,174.167 344.5,174.5C 343.761,174.369 343.094,174.536 342.5,175C 343.517,176.049 343.684,177.216 343,178.5C 342.29,177.027 341.124,176.36 339.5,176.5C 339.5,177.5 339.5,178.5 339.5,179.5C 338.127,179.657 336.793,179.49 335.5,179C 336.696,178.346 336.696,177.846 335.5,177.5C 334.459,179.991 333.626,179.991 333,177.5C 332.148,178.571 331.315,179.571 330.5,180.5C 329.226,179.811 329.226,178.977 330.5,178C 329.207,177.51 327.873,177.343 326.5,177.5C 326.5,178.5 326.5,179.5 326.5,180.5C 325.022,180.762 323.689,180.429 322.5,179.5C 323.025,178.808 323.692,178.308 324.5,178C 323.333,177.833 322.167,177.667 321,177.5C 319.128,178.035 317.462,178.035 316,177.5C 313.626,180.288 312.293,179.954 312,176.5C 311.612,177.428 310.945,178.095 310,178.5C 306.579,178.092 303.579,177.758 301,177.5C 300.333,180.167 299.667,180.167 299,177.5C 298.333,180.167 297.667,180.167 297,177.5C 296.5,178.667 295.667,179.5 294.5,180C 297.833,180.333 301.167,180.667 304.5,181C 288.833,181.667 273.167,181.667 257.5,181C 261.5,180.667 265.5,180.333 269.5,180C 261.921,179.816 254.421,179.316 247,178.5C 244.628,179.317 244.128,180.65 245.5,182.5C 243.43,182.551 241.597,181.885 240,180.5C 238.909,182.346 237.576,183.013 236,182.5C 235.667,181.833 235.333,181.167 235,180.5C 234.781,181.938 234.281,183.271 233.5,184.5C 231.675,183.429 230.508,184.096 230,186.5C 229.667,185.167 229.333,183.833 229,182.5C 227.244,183.548 225.41,183.548 223.5,182.5C 222.353,182.818 221.519,183.484 221,184.5C 220.5,183.333 219.667,182.5 218.5,182C 219.278,178.853 220.111,175.687 221,172.5C 221.667,173.833 222.333,173.833 223,172.5C 224.204,173.471 224.704,174.471 224.5,175.5C 227.744,174.93 231.078,174.93 234.5,175.5C 242.075,174.117 249.742,173.117 257.5,172.5C 264.54,172.931 271.206,173.265 277.5,173.5C 278.478,173.023 279.311,172.357 280,171.5C 280.667,174.167 281.333,174.167 282,171.5C 285.751,171.328 289.584,171.662 293.5,172.5C 297.7,171.863 301.866,171.196 306,170.5C 310.355,171.082 315.021,171.749 320,172.5C 320.945,172.095 321.612,171.428 322,170.5C 322.308,171.308 322.808,171.975 323.5,172.5C 327.779,171.726 332.113,171.226 336.5,171C 335.062,170.781 333.729,170.281 332.5,169.5C 332.938,168.494 333.604,168.494 334.5,169.5C 335.216,168.689 336.05,168.022 337,167.5C 338.15,168.424 339.15,168.424 340,167.5C 340.814,170.177 342.314,172.177 344.5,173.5 Z"/></g>
<g><path style="opacity:1" fill="#f4f6f7" d="M 213.5,189.5 C 213.461,190.583 213.127,191.583 212.5,192.5C 203.833,193.833 195.167,193.833 186.5,192.5C 187.991,188.2 189.324,183.867 190.5,179.5C 191.81,176.601 193.143,173.601 194.5,170.5C 203.167,169.167 211.833,169.167 220.5,170.5C 217.963,176.78 215.63,183.113 213.5,189.5 Z"/></g>
<g><path style="opacity:1" fill="#29506b" d="M 103.5,161.5 C 104.75,161.577 105.583,162.244 106,163.5C 107.906,168.972 110.072,174.306 112.5,179.5C 91.1762,184.525 82.8429,197.858 87.5,219.5C 85.8818,215.916 84.8818,211.916 84.5,207.5C 82.939,206.653 81.439,206.986 80,208.5C 75.3353,207.261 75.502,206.428 80.5,206C 77.9009,205.231 75.4009,205.398 73,206.5C 72.4236,203.876 71.0902,203.209 69,204.5C 65.7327,204.105 62.7327,203.105 60,201.5C 57.985,202.842 55.8183,203.342 53.5,203C 54.9973,201.129 56.9973,200.129 59.5,200C 58.9473,198.122 57.9473,196.622 56.5,195.5C 69.8595,180.986 85.5262,169.653 103.5,161.5 Z"/></g>
<g><path style="opacity:1" fill="#f7f8f8" d="M 112.5,179.5 C 124.967,179.897 134.634,185.231 141.5,195.5C 145.971,205.577 145.304,215.243 139.5,224.5C 133.2,234.065 124.2,238.732 112.5,238.5C 100.911,236.23 92.5776,229.897 87.5,219.5C 82.8429,197.858 91.1762,184.525 112.5,179.5 Z"/></g>
<g><path style="opacity:1" fill="#2b5773" d="M 330.5,180.5 C 330.834,182.565 332.334,184.232 335,185.5C 335.308,184.692 335.808,184.025 336.5,183.5C 338.617,184.532 340.783,184.532 343,183.5C 344.326,183.755 345.326,184.422 346,185.5C 353.754,184.353 361.587,184.186 369.5,185C 372.84,187.009 376.507,188.176 380.5,188.5C 382.663,188.078 383.997,186.744 384.5,184.5C 385.696,184.846 385.696,185.346 384.5,186C 386.619,186.098 388.286,186.931 389.5,188.5C 388.691,190.071 388.357,191.738 388.5,193.5C 389.5,193.5 390.5,193.5 391.5,193.5C 393.809,201.353 395.476,209.353 396.5,217.5C 395.625,215.432 394.459,213.432 393,211.5C 392.66,207.442 391.993,203.442 391,199.5C 390.667,200.167 390.333,200.833 390,201.5C 389.29,200.027 388.124,199.36 386.5,199.5C 386.649,198.448 386.483,197.448 386,196.5C 385.71,198.044 385.044,199.377 384,200.5C 381.443,198.686 378.776,198.352 376,199.5C 372,198.833 368,198.167 364,197.5C 360.138,199.005 356.138,200.005 352,200.5C 351.333,197.833 350.667,197.833 350,200.5C 348.301,199.594 346.467,199.261 344.5,199.5C 344.587,196.402 344.087,196.068 343,198.5C 340.76,195.833 339.26,196.333 338.5,200C 339.337,201.011 339.67,202.178 339.5,203.5C 341.124,203.36 342.29,204.027 343,205.5C 343.333,204.833 343.667,204.167 344,203.5C 347.65,204.314 351.15,204.648 354.5,204.5C 353.662,204.842 353.328,205.508 353.5,206.5C 351.709,207.483 350.209,208.816 349,210.5C 348.667,210.167 348.333,209.833 348,209.5C 347.333,213.5 346.667,213.5 346,209.5C 345.43,212.844 344.264,213.177 342.5,210.5C 341.081,211.005 340.415,212.005 340.5,213.5C 338.381,206.331 335.547,199.331 332,192.5C 328.043,187.276 322.877,184.276 316.5,183.5C 293.006,182.502 269.339,182.169 245.5,182.5C 244.128,180.65 244.628,179.317 247,178.5C 254.421,179.316 261.921,179.816 269.5,180C 265.5,180.333 261.5,180.667 257.5,181C 273.167,181.667 288.833,181.667 304.5,181C 301.167,180.667 297.833,180.333 294.5,180C 295.667,179.5 296.5,178.667 297,177.5C 297.667,180.167 298.333,180.167 299,177.5C 299.667,180.167 300.333,180.167 301,177.5C 303.579,177.758 306.579,178.092 310,178.5C 310.945,178.095 311.612,177.428 312,176.5C 312.293,179.954 313.626,180.288 316,177.5C 317.462,178.035 319.128,178.035 321,177.5C 322.167,177.667 323.333,177.833 324.5,178C 323.692,178.308 323.025,178.808 322.5,179.5C 323.689,180.429 325.022,180.762 326.5,180.5C 326.5,179.5 326.5,178.5 326.5,177.5C 327.873,177.343 329.207,177.51 330.5,178C 329.226,178.977 329.226,179.811 330.5,180.5 Z"/></g>
<g><path style="opacity:1" fill="#2d5872" d="M 190.5,179.5 C 189.324,183.867 187.991,188.2 186.5,192.5C 195.167,193.833 203.833,193.833 212.5,192.5C 213.127,191.583 213.461,190.583 213.5,189.5C 215.522,188.493 216.855,186.826 217.5,184.5C 220.5,187.167 223.5,187.167 226.5,184.5C 227.527,186.553 228.527,188.553 229.5,190.5C 226.224,197.01 223.557,203.676 221.5,210.5C 221.443,208.116 221.777,205.782 222.5,203.5C 222.281,202.062 221.781,200.729 221,199.5C 220.316,200.784 220.483,201.951 221.5,203C 219.741,203.798 218.074,203.631 216.5,202.5C 217.894,201.313 217.727,200.646 216,200.5C 213.33,201 210.496,201 207.5,200.5C 200.489,202.375 193.322,203.709 186,204.5C 184.598,202.027 183.098,202.027 181.5,204.5C 177.473,203.154 173.473,201.821 169.5,200.5C 170.809,196.596 171.809,192.596 172.5,188.5C 176.459,187.894 180.459,187.227 184.5,186.5C 184.167,184.833 183.167,183.833 181.5,183.5C 180.137,184.198 178.971,184.198 178,183.5C 177.333,181.167 177.333,178.833 178,176.5C 180,176.5 182,176.5 184,176.5C 184.359,179.544 185.026,179.878 186,177.5C 187.154,179.957 188.488,179.957 190,177.5C 190.464,178.094 190.631,178.761 190.5,179.5 Z"/></g>
<g><path style="opacity:1" fill="#335e7c" d="M 477.5,205.5 C 477.44,204.957 477.107,204.624 476.5,204.5C 473.938,206.752 471.104,207.418 468,206.5C 465.439,208.344 462.606,208.844 459.5,208C 459.833,207.667 460.167,207.333 460.5,207C 459.261,202.335 458.428,202.502 458,207.5C 457.691,206.234 457.191,205.067 456.5,204C 458.35,201.982 460.35,200.149 462.5,198.5C 464.116,199.115 465.449,200.115 466.5,201.5C 467.192,200.975 467.692,200.308 468,199.5C 468.249,200.624 468.749,201.624 469.5,202.5C 469.833,202.333 470.167,202.167 470.5,202C 469.8,199.528 468.8,197.195 467.5,195C 468.148,193.56 468.481,192.06 468.5,190.5C 472.25,184.456 477.584,181.956 484.5,183C 488.253,184.674 489.753,187.507 489,191.5C 485.387,196.421 481.554,201.088 477.5,205.5 Z"/></g>
<g><path style="opacity:1" fill="#97abb7" d="M 354.5,204.5 C 363.565,203.864 372.231,204.53 380.5,206.5C 371.735,205.185 363.068,205.185 354.5,206.5C 354.167,206.5 353.833,206.5 353.5,206.5C 353.328,205.508 353.662,204.842 354.5,204.5 Z"/></g>
<g><path style="opacity:1" fill="#b3bec3" d="M 279.5,249.5 C 277.059,247.925 275.893,245.592 276,242.5C 273.951,241.651 271.618,241.651 269,242.5C 268.333,239.833 267.667,239.833 267,242.5C 266.487,240.479 265.32,238.979 263.5,238C 256.78,234.924 250.613,231.091 245,226.5C 244.667,226.833 244.333,227.167 244,227.5C 242.812,226.437 242.312,225.103 242.5,223.5C 240.09,222.611 237.59,221.945 235,221.5C 233.564,221.559 232.231,221.892 231,222.5C 229.541,220.19 227.708,219.857 225.5,221.5C 226.638,212.252 229.472,203.585 234,195.5C 236.685,191.073 240.518,189.24 245.5,190C 261.65,207.007 272.983,226.84 279.5,249.5 Z"/></g>
<g><path style="opacity:1" fill="#f6f7f8" d="M 380.5,206.5 C 382.347,214.071 383.681,221.738 384.5,229.5C 375.833,229.5 367.167,229.5 358.5,229.5C 357.489,221.767 356.156,214.1 354.5,206.5C 363.068,205.185 371.735,205.185 380.5,206.5 Z"/></g>
<g><path style="opacity:1" fill="#274f69" d="M 221.5,210.5 C 220.032,219.329 218.365,227.996 216.5,236.5C 217.036,233.335 216.203,230.669 214,228.5C 213.383,229.449 213.549,230.282 214.5,231C 212.527,231.495 210.527,231.662 208.5,231.5C 208.649,232.552 208.483,233.552 208,234.5C 207.28,232.888 207.446,231.388 208.5,230C 207.436,228.489 206.103,228.323 204.5,229.5C 204.908,224.463 205.574,219.463 206.5,214.5C 207.404,213.791 207.737,212.791 207.5,211.5C 198.651,211.174 189.984,211.507 181.5,212.5C 181.089,216.221 180.422,219.888 179.5,223.5C 177.908,222.398 177.075,223.065 177,225.5C 174.052,225.923 171.219,225.256 168.5,223.5C 168.912,221.027 167.912,219.694 165.5,219.5C 166.837,213.145 168.171,206.812 169.5,200.5C 173.473,201.821 177.473,203.154 181.5,204.5C 183.098,202.027 184.598,202.027 186,204.5C 193.322,203.709 200.489,202.375 207.5,200.5C 210.496,201 213.33,201 216,200.5C 217.727,200.646 217.894,201.313 216.5,202.5C 218.074,203.631 219.741,203.798 221.5,203C 220.483,201.951 220.316,200.784 221,199.5C 221.781,200.729 222.281,202.062 222.5,203.5C 221.777,205.782 221.443,208.116 221.5,210.5 Z"/></g>
<g><path style="opacity:1" fill="#677e8d" d="M 181.5,212.5 C 189.984,211.507 198.651,211.174 207.5,211.5C 207.737,212.791 207.404,213.791 206.5,214.5C 198.567,212.532 190.234,211.865 181.5,212.5 Z"/></g>
<g><path style="opacity:1" fill="#29526b" d="M 468.5,190.5 C 468.481,192.06 468.148,193.56 467.5,195C 468.8,197.195 469.8,199.528 470.5,202C 470.167,202.167 469.833,202.333 469.5,202.5C 468.749,201.624 468.249,200.624 468,199.5C 467.692,200.308 467.192,200.975 466.5,201.5C 465.449,200.115 464.116,199.115 462.5,198.5C 460.35,200.149 458.35,201.982 456.5,204C 457.191,205.067 457.691,206.234 458,207.5C 458.428,202.502 459.261,202.335 460.5,207C 460.167,207.333 459.833,207.667 459.5,208C 462.606,208.844 465.439,208.344 468,206.5C 471.104,207.418 473.938,206.752 476.5,204.5C 477.107,204.624 477.44,204.957 477.5,205.5C 470.179,214.819 462.512,223.819 454.5,232.5C 453.811,231.226 452.977,231.226 452,232.5C 450.483,230.824 449.983,229.157 450.5,227.5C 451.251,228.376 451.751,229.376 452,230.5C 453.986,228.067 456.153,225.067 458.5,221.5C 459.167,221.833 459.833,222.167 460.5,222.5C 461.833,221.5 461.833,220.5 460.5,219.5C 458.641,219.888 456.641,219.888 454.5,219.5C 453.14,223.34 451.64,223.34 450,219.5C 449.667,220.167 449.333,220.833 449,221.5C 449.017,215.192 447.684,214.859 445,220.5C 444.026,218.122 443.359,218.456 443,221.5C 442.751,220.376 442.251,219.376 441.5,218.5C 437.664,220.239 436.331,222.906 437.5,226.5C 436.448,226.351 435.448,226.517 434.5,227C 436.5,227.333 438.5,227.667 440.5,228C 441.362,230.734 442.195,230.901 443,228.5C 443.494,230.134 443.66,231.801 443.5,233.5C 441.123,233.216 438.956,233.216 437,233.5C 435.915,232.707 434.748,232.04 433.5,231.5C 432.304,231.846 432.304,232.346 433.5,233C 430.518,233.498 427.518,233.665 424.5,233.5C 439.14,219.194 453.807,204.861 468.5,190.5 Z"/></g>
<g><path style="opacity:1" fill="#f7f8f8" d="M 181.5,212.5 C 190.234,211.865 198.567,212.532 206.5,214.5C 205.574,219.463 204.908,224.463 204.5,229.5C 203.662,229.842 203.328,230.508 203.5,231.5C 195.5,231.5 187.5,231.5 179.5,231.5C 179.5,230.5 179.5,229.5 179.5,228.5C 179.5,226.833 179.5,225.167 179.5,223.5C 180.422,219.888 181.089,216.221 181.5,212.5 Z"/></g>
<g><path style="opacity:1" fill="#1c4058" d="M 56.5,195.5 C 57.9473,196.622 58.9473,198.122 59.5,200C 56.9973,200.129 54.9973,201.129 53.5,203C 55.8183,203.342 57.985,202.842 60,201.5C 62.7327,203.105 65.7327,204.105 69,204.5C 71.0902,203.209 72.4236,203.876 73,206.5C 75.4009,205.398 77.9009,205.231 80.5,206C 75.502,206.428 75.3353,207.261 80,208.5C 81.439,206.986 82.939,206.653 84.5,207.5C 84.8818,211.916 85.8818,215.916 87.5,219.5C 92.5776,229.897 100.911,236.23 112.5,238.5C 112.631,239.376 112.298,240.043 111.5,240.5C 110.575,239.359 109.741,239.359 109,240.5C 107.56,238.954 105.727,238.121 103.5,238C 92.6785,238.382 82.1785,236.882 72,233.5C 71.3086,235.891 70.3086,235.891 69,233.5C 68.6924,234.308 68.1924,234.975 67.5,235.5C 65.5,234.167 63.5,232.833 61.5,231.5C 59.939,232.347 58.439,232.014 57,230.5C 56.6667,231.167 56.3333,231.833 56,232.5C 51.8161,231.732 47.6494,230.732 43.5,229.5C 42.3527,229.182 41.5194,228.516 41,227.5C 40.6924,228.308 40.1924,228.975 39.5,229.5C 38.3578,228.174 37.0245,227.174 35.5,226.5C 41.2525,215.331 48.2525,204.997 56.5,195.5 Z"/></g>
<g><path style="opacity:1" fill="#7c909c" d="M 141.5,195.5 C 144.774,197.933 147.941,200.599 151,203.5C 151.414,203.043 151.914,202.709 152.5,202.5C 154.414,204.202 155.914,206.202 157,208.5C 157.324,206.431 158.158,206.098 159.5,207.5C 160.182,206.757 160.849,206.091 161.5,205.5C 157.948,227.011 156.614,248.677 157.5,270.5C 155.167,270.5 152.833,270.5 150.5,270.5C 152.265,269.539 154.265,269.205 156.5,269.5C 156.5,265.833 156.5,262.167 156.5,258.5C 156.666,254.486 156.499,250.486 156,246.5C 150.637,238.983 145.137,231.65 139.5,224.5C 145.304,215.243 145.971,205.577 141.5,195.5 Z"/></g>
<g><path style="opacity:1" fill="#21445d" d="M 165.5,219.5 C 167.912,219.694 168.912,221.027 168.5,223.5C 171.219,225.256 174.052,225.923 177,225.5C 177.075,223.065 177.908,222.398 179.5,223.5C 179.5,225.167 179.5,226.833 179.5,228.5C 178.566,229.568 178.232,230.901 178.5,232.5C 187.017,232.826 195.35,232.493 203.5,231.5C 203.328,230.508 203.662,229.842 204.5,229.5C 206.103,228.323 207.436,228.489 208.5,230C 207.446,231.388 207.28,232.888 208,234.5C 208.483,233.552 208.649,232.552 208.5,231.5C 210.527,231.662 212.527,231.495 214.5,231C 213.549,230.282 213.383,229.449 214,228.5C 216.203,230.669 217.036,233.335 216.5,236.5C 216.5,245.167 216.5,253.833 216.5,262.5C 215.518,259.038 215.185,255.371 215.5,251.5C 213.403,250.647 211.403,250.647 209.5,251.5C 207.83,250.005 205.997,248.672 204,247.5C 198.433,247.883 192.599,247.883 186.5,247.5C 183.629,247.885 181.463,246.885 180,244.5C 177.925,247.028 177.092,246.861 177.5,244C 174.565,243.753 171.565,243.087 168.5,242C 170.932,240.913 170.598,240.413 167.5,240.5C 167.523,238.4 166.856,236.567 165.5,235C 166.291,233.899 166.291,233.066 165.5,232.5C 164.831,234.631 164.165,236.631 163.5,238.5C 163.906,232.137 164.573,225.803 165.5,219.5 Z"/></g>
<g><path style="opacity:1" fill="#234861" d="M 396.5,217.5 C 398.509,223.911 399.342,230.578 399,237.5C 397.961,238.71 396.794,239.71 395.5,240.5C 394.85,240.196 394.183,239.863 393.5,239.5C 392.086,242.21 390.086,243.21 387.5,242.5C 384.272,243.698 381.105,245.031 378,246.5C 371.78,245.183 365.947,245.516 360.5,247.5C 359.304,247.154 359.304,246.654 360.5,246C 356.5,245.667 352.5,245.333 348.5,245C 349.696,244.346 349.696,243.846 348.5,243.5C 347.081,244.005 346.415,245.005 346.5,246.5C 344.784,235.578 342.784,224.578 340.5,213.5C 340.415,212.005 341.081,211.005 342.5,210.5C 344.264,213.177 345.43,212.844 346,209.5C 346.667,213.5 347.333,213.5 348,209.5C 348.333,209.833 348.667,210.167 349,210.5C 350.209,208.816 351.709,207.483 353.5,206.5C 353.833,206.5 354.167,206.5 354.5,206.5C 356.156,214.1 357.489,221.767 358.5,229.5C 367.167,229.5 375.833,229.5 384.5,229.5C 383.681,221.738 382.347,214.071 380.5,206.5C 372.231,204.53 363.565,203.864 354.5,204.5C 351.15,204.648 347.65,204.314 344,203.5C 343.667,204.167 343.333,204.833 343,205.5C 342.29,204.027 341.124,203.36 339.5,203.5C 339.67,202.178 339.337,201.011 338.5,200C 339.26,196.333 340.76,195.833 343,198.5C 344.087,196.068 344.587,196.402 344.5,199.5C 346.467,199.261 348.301,199.594 350,200.5C 350.667,197.833 351.333,197.833 352,200.5C 356.138,200.005 360.138,199.005 364,197.5C 368,198.167 372,198.833 376,199.5C 378.776,198.352 381.443,198.686 384,200.5C 385.044,199.377 385.71,198.044 386,196.5C 386.483,197.448 386.649,198.448 386.5,199.5C 388.124,199.36 389.29,200.027 390,201.5C 390.333,200.833 390.667,200.167 391,199.5C 391.993,203.442 392.66,207.442 393,211.5C 394.459,213.432 395.625,215.432 396.5,217.5 Z"/></g>
<g><path style="opacity:1" fill="#193850" d="M 139.5,224.5 C 145.137,231.65 150.637,238.983 156,246.5C 156.499,250.486 156.666,254.486 156.5,258.5C 155.48,256.066 154.147,256.066 152.5,258.5C 142.979,259.456 133.646,258.456 124.5,255.5C 119.833,256.167 115.167,256.833 110.5,257.5C 109.833,257.167 109.167,256.833 108.5,256.5C 109.376,255.749 110.376,255.249 111.5,255C 109.939,254.682 108.772,253.849 108,252.5C 107.667,254.167 107.333,255.833 107,257.5C 105.192,257.112 103.525,257.112 102,257.5C 101.196,256.196 100.029,255.529 98.5,255.5C 96.8715,256.423 95.3715,256.757 94,256.5C 93.1667,255.5 92.3333,254.5 91.5,253.5C 90.6143,254.325 90.281,255.325 90.5,256.5C 76.6189,246.689 63.2856,247.356 50.5,258.5C 49.8826,258.389 49.3826,258.056 49,257.5C 47.2663,258.249 45.433,258.749 43.5,259C 42.994,261.694 41.8273,263.194 40,263.5C 38.6667,262.833 37.6667,261.833 37,260.5C 36.6667,260.833 36.3333,261.167 36,261.5C 36.3333,260.167 36.6667,258.833 37,257.5C 36.6667,257.833 36.3333,258.167 36,258.5C 33.4613,255.033 30.9613,254.533 28.5,257C 27.8333,257.667 27.1667,257.667 26.5,257C 27.3234,254.241 27.9901,251.407 28.5,248.5C 28.4573,247.584 28.1239,246.917 27.5,246.5C 29.2055,239.37 31.8722,232.703 35.5,226.5C 37.0245,227.174 38.3578,228.174 39.5,229.5C 40.1924,228.975 40.6924,228.308 41,227.5C 41.5194,228.516 42.3527,229.182 43.5,229.5C 47.6494,230.732 51.8161,231.732 56,232.5C 56.3333,231.833 56.6667,231.167 57,230.5C 58.439,232.014 59.939,232.347 61.5,231.5C 63.5,232.833 65.5,234.167 67.5,235.5C 68.1924,234.975 68.6924,234.308 69,233.5C 70.3086,235.891 71.3086,235.891 72,233.5C 82.1785,236.882 92.6785,238.382 103.5,238C 105.727,238.121 107.56,238.954 109,240.5C 109.741,239.359 110.575,239.359 111.5,240.5C 112.298,240.043 112.631,239.376 112.5,238.5C 124.2,238.732 133.2,234.065 139.5,224.5 Z"/></g>
<g><path style="opacity:1" fill="#a1aeb5" d="M 279.5,249.5 C 282.903,260.231 283.57,271.065 281.5,282C 281.696,283.878 282.029,285.712 282.5,287.5C 278.79,285.418 274.956,283.418 271,281.5C 270.667,281.833 270.333,282.167 270,282.5C 266.944,279.157 263.944,275.824 261,272.5C 260.722,273.416 260.222,274.082 259.5,274.5C 251.204,260.949 239.204,255.949 223.5,259.5C 222.045,246.72 222.712,234.054 225.5,221.5C 227.708,219.857 229.541,220.19 231,222.5C 232.231,221.892 233.564,221.559 235,221.5C 237.59,221.945 240.09,222.611 242.5,223.5C 242.312,225.103 242.812,226.437 244,227.5C 244.333,227.167 244.667,226.833 245,226.5C 250.613,231.091 256.78,234.924 263.5,238C 265.32,238.979 266.487,240.479 267,242.5C 267.667,239.833 268.333,239.833 269,242.5C 271.618,241.651 273.951,241.651 276,242.5C 275.893,245.592 277.059,247.925 279.5,249.5 Z"/></g>
<g><path style="opacity:1" fill="#778b99" d="M 179.5,228.5 C 179.5,229.5 179.5,230.5 179.5,231.5C 187.5,231.5 195.5,231.5 203.5,231.5C 195.35,232.493 187.017,232.826 178.5,232.5C 178.232,230.901 178.566,229.568 179.5,228.5 Z"/></g>
<g><path style="opacity:1" fill="#1d3c53" d="M 216.5,262.5 C 216.677,273.248 217.677,283.915 219.5,294.5C 219.167,294.5 218.833,294.5 218.5,294.5C 218.108,292.821 217.608,291.154 217,289.5C 214.122,295.236 210.955,295.569 207.5,290.5C 209.149,289.012 211.149,288.012 213.5,287.5C 212.975,286.808 212.308,286.308 211.5,286C 215.077,285.882 216.744,284.049 216.5,280.5C 215.228,278.342 214.395,276.342 214,274.5C 213.255,275.99 212.088,276.99 210.5,277.5C 207.346,277.397 204.179,277.397 201,277.5C 197.91,276.607 195.077,275.941 192.5,275.5C 193.376,274.749 194.376,274.249 195.5,274C 192.711,273.759 190.044,273.092 187.5,272C 187.833,271.667 188.167,271.333 188.5,271C 183.809,270.35 179.143,270.517 174.5,271.5C 171.724,271.195 169.224,270.195 167,268.5C 164.897,270.303 164.064,272.636 164.5,275.5C 162.293,263.343 161.96,251.009 163.5,238.5C 164.165,236.631 164.831,234.631 165.5,232.5C 166.291,233.066 166.291,233.899 165.5,235C 166.856,236.567 167.523,238.4 167.5,240.5C 170.598,240.413 170.932,240.913 168.5,242C 171.565,243.087 174.565,243.753 177.5,244C 177.092,246.861 177.925,247.028 180,244.5C 181.463,246.885 183.629,247.885 186.5,247.5C 192.599,247.883 198.433,247.883 204,247.5C 205.997,248.672 207.83,250.005 209.5,251.5C 211.403,250.647 213.403,250.647 215.5,251.5C 215.185,255.371 215.518,259.038 216.5,262.5 Z"/></g>
<g><path style="opacity:1" fill="#1e4159" d="M 454.5,232.5 C 448.552,241.39 441.885,249.723 434.5,257.5C 431.503,255.181 428.336,255.181 425,257.5C 424.333,256.167 423.667,256.167 423,257.5C 422.333,254.833 421.667,254.833 421,257.5C 419.089,256.555 417.089,256.555 415,257.5C 413.553,257.055 412.22,256.388 411,255.5C 408.36,257.661 405.527,257.995 402.5,256.5C 399.115,259.408 396.281,262.075 394,264.5C 393.83,266.715 393.163,268.715 392,270.5C 389.266,269.638 389.099,268.805 391.5,268C 390.906,267.536 390.239,267.369 389.5,267.5C 401.14,256.194 412.807,244.861 424.5,233.5C 427.518,233.665 430.518,233.498 433.5,233C 432.304,232.346 432.304,231.846 433.5,231.5C 434.748,232.04 435.915,232.707 437,233.5C 438.956,233.216 441.123,233.216 443.5,233.5C 443.66,231.801 443.494,230.134 443,228.5C 442.195,230.901 441.362,230.734 440.5,228C 438.5,227.667 436.5,227.333 434.5,227C 435.448,226.517 436.448,226.351 437.5,226.5C 436.331,222.906 437.664,220.239 441.5,218.5C 442.251,219.376 442.751,220.376 443,221.5C 443.359,218.456 444.026,218.122 445,220.5C 447.684,214.859 449.017,215.192 449,221.5C 449.333,220.833 449.667,220.167 450,219.5C 451.64,223.34 453.14,223.34 454.5,219.5C 456.641,219.888 458.641,219.888 460.5,219.5C 461.833,220.5 461.833,221.5 460.5,222.5C 459.833,222.167 459.167,221.833 458.5,221.5C 456.153,225.067 453.986,228.067 452,230.5C 451.751,229.376 451.251,228.376 450.5,227.5C 449.983,229.157 450.483,230.824 452,232.5C 452.977,231.226 453.811,231.226 454.5,232.5 Z"/></g>
<g><path style="opacity:1" fill="#1d3c53" d="M 395.5,240.5 C 392.704,243.797 389.704,246.964 386.5,250C 378.173,250.5 369.84,250.666 361.5,250.5C 362.564,258.131 362.731,265.798 362,273.5C 360.647,274.685 359.48,276.019 358.5,277.5C 348.169,269.865 344.169,259.532 346.5,246.5C 346.415,245.005 347.081,244.005 348.5,243.5C 349.696,243.846 349.696,244.346 348.5,245C 352.5,245.333 356.5,245.667 360.5,246C 359.304,246.654 359.304,247.154 360.5,247.5C 365.947,245.516 371.78,245.183 378,246.5C 381.105,245.031 384.272,243.698 387.5,242.5C 390.086,243.21 392.086,242.21 393.5,239.5C 394.183,239.863 394.85,240.196 395.5,240.5 Z"/></g>
<g><path style="opacity:1" fill="#f7f7f8" d="M 90.5,256.5 C 101.009,266.791 103.342,278.791 97.5,292.5C 91.6347,302.525 82.8014,307.858 71,308.5C 59.6277,307.573 51.1277,302.239 45.5,292.5C 40.2126,280.085 41.8793,268.752 50.5,258.5C 63.2856,247.356 76.6189,246.689 90.5,256.5 Z"/></g>
<g><path style="opacity:1" fill="#f7f8f8" d="M 177.5,250.5 C 185.5,250.5 193.5,250.5 201.5,250.5C 201.5,256.833 201.5,263.167 201.5,269.5C 193.5,269.5 185.5,269.5 177.5,269.5C 177.5,263.167 177.5,256.833 177.5,250.5 Z"/></g>
<g><path style="opacity:1" fill="#153047" d="M 156.5,258.5 C 156.5,262.167 156.5,265.833 156.5,269.5C 154.265,269.205 152.265,269.539 150.5,270.5C 137.275,275.619 134.275,284.285 141.5,296.5C 139.68,295.273 137.68,294.273 135.5,293.5C 132.398,293.497 132.065,293.997 134.5,295C 133.234,295.309 132.067,295.809 131,296.5C 126.251,295.695 121.418,295.195 116.5,295C 115.975,294.308 115.308,293.808 114.5,293.5C 110.911,294.71 107.411,296.043 104,297.5C 103.047,295.408 101.714,295.075 100,296.5C 98.887,295.24 98.7203,294.073 99.5,293C 98.9056,292.536 98.2389,292.369 97.5,292.5C 103.342,278.791 101.009,266.791 90.5,256.5C 90.281,255.325 90.6143,254.325 91.5,253.5C 92.3333,254.5 93.1667,255.5 94,256.5C 95.3715,256.757 96.8715,256.423 98.5,255.5C 100.029,255.529 101.196,256.196 102,257.5C 103.525,257.112 105.192,257.112 107,257.5C 107.333,255.833 107.667,254.167 108,252.5C 108.772,253.849 109.939,254.682 111.5,255C 110.376,255.249 109.376,255.749 108.5,256.5C 109.167,256.833 109.833,257.167 110.5,257.5C 115.167,256.833 119.833,256.167 124.5,255.5C 133.646,258.456 142.979,259.456 152.5,258.5C 154.147,256.066 155.48,256.066 156.5,258.5 Z"/></g>
<g><path style="opacity:1" fill="#19364e" d="M 434.5,257.5 C 429.516,264.48 424.183,271.146 418.5,277.5C 416.876,277.36 415.71,278.027 415,279.5C 414.333,278.833 413.667,278.167 413,277.5C 410.015,278.497 407.015,279.497 404,280.5C 402.089,279.593 400.256,279.593 398.5,280.5C 397.459,278.009 396.626,278.009 396,280.5C 395,277.833 394,277.833 393,280.5C 391.333,279.167 389.667,279.167 388,280.5C 386.933,279.809 385.766,279.309 384.5,279C 385.167,278.667 385.833,278.333 386.5,278C 384.888,277.28 383.388,277.446 382,278.5C 381.517,277.552 381.351,276.552 381.5,275.5C 383.833,272.5 386.5,269.833 389.5,267.5C 390.239,267.369 390.906,267.536 391.5,268C 389.099,268.805 389.266,269.638 392,270.5C 393.163,268.715 393.83,266.715 394,264.5C 396.281,262.075 399.115,259.408 402.5,256.5C 405.527,257.995 408.36,257.661 411,255.5C 412.22,256.388 413.553,257.055 415,257.5C 417.089,256.555 419.089,256.555 421,257.5C 421.667,254.833 422.333,254.833 423,257.5C 423.667,256.167 424.333,256.167 425,257.5C 428.336,255.181 431.503,255.181 434.5,257.5 Z"/></g>
<g><path style="opacity:1" fill="#8fa1ab" d="M 177.5,250.5 C 185.65,249.507 193.983,249.174 202.5,249.5C 202.824,256.354 202.491,263.021 201.5,269.5C 201.5,263.167 201.5,256.833 201.5,250.5C 193.5,250.5 185.5,250.5 177.5,250.5 Z"/></g>
<g><path style="opacity:1" fill="#173048" d="M 218.5,294.5 C 219.144,300.554 216.477,302.72 210.5,301C 207.616,298.396 205.949,295.229 205.5,291.5C 204.566,290.432 204.232,289.099 204.5,287.5C 196.167,287.5 187.833,287.5 179.5,287.5C 180.5,292.835 181.5,298.168 182.5,303.5C 181.732,302.737 181.232,301.737 181,300.5C 180.781,301.938 180.281,303.271 179.5,304.5C 178.914,304.291 178.414,303.957 178,303.5C 175.2,304.125 172.366,304.792 169.5,305.5C 170.932,307.816 171.932,310.316 172.5,313C 171.906,313.464 171.239,313.631 170.5,313.5C 167.041,301.199 165.041,288.533 164.5,275.5C 164.064,272.636 164.897,270.303 167,268.5C 169.224,270.195 171.724,271.195 174.5,271.5C 179.143,270.517 183.809,270.35 188.5,271C 188.167,271.333 187.833,271.667 187.5,272C 190.044,273.092 192.711,273.759 195.5,274C 194.376,274.249 193.376,274.749 192.5,275.5C 195.077,275.941 197.91,276.607 201,277.5C 204.179,277.397 207.346,277.397 210.5,277.5C 212.088,276.99 213.255,275.99 214,274.5C 214.395,276.342 215.228,278.342 216.5,280.5C 216.744,284.049 215.077,285.882 211.5,286C 212.308,286.308 212.975,286.808 213.5,287.5C 211.149,288.012 209.149,289.012 207.5,290.5C 210.955,295.569 214.122,295.236 217,289.5C 217.608,291.154 218.108,292.821 218.5,294.5 Z"/></g>
<g><path style="opacity:1" fill="#142e41" d="M 27.5,246.5 C 28.1239,246.917 28.4573,247.584 28.5,248.5C 27.9901,251.407 27.3234,254.241 26.5,257C 27.1667,257.667 27.8333,257.667 28.5,257C 30.9613,254.533 33.4613,255.033 36,258.5C 36.3333,258.167 36.6667,257.833 37,257.5C 36.6667,258.833 36.3333,260.167 36,261.5C 36.3333,261.167 36.6667,260.833 37,260.5C 37.6667,261.833 38.6667,262.833 40,263.5C 41.8273,263.194 42.994,261.694 43.5,259C 45.433,258.749 47.2663,258.249 49,257.5C 49.3826,258.056 49.8826,258.389 50.5,258.5C 41.8793,268.752 40.2126,280.085 45.5,292.5C 44.0695,292.579 42.7362,292.246 41.5,291.5C 39.3733,293.617 39.04,292.951 40.5,289.5C 37.9732,285.692 36.3065,285.692 35.5,289.5C 33.7749,288.985 32.1083,288.318 30.5,287.5C 30.7093,286.914 31.0426,286.414 31.5,286C 29.1176,284.218 26.2843,282.718 23,281.5C 22.5007,286.489 22.3341,291.489 22.5,296.5C 20.6359,279.598 22.3026,262.932 27.5,246.5 Z"/></g>
<g><path style="opacity:1" fill="#19344c" d="M 343.5,283.5 C 342.279,284.028 341.113,284.695 340,285.5C 337.269,283.467 334.269,281.801 331,280.5C 330.333,281.167 329.667,281.833 329,282.5C 322.78,281.067 316.613,281.401 310.5,283.5C 309.459,281.009 308.626,281.009 308,283.5C 307.667,282.167 307.333,280.833 307,279.5C 306.187,282.982 304.521,283.315 302,280.5C 301.035,282.26 299.868,282.594 298.5,281.5C 300.726,276.938 303.726,272.938 307.5,269.5C 310.82,264.03 315.487,260.863 321.5,260C 324.965,262.463 328.131,265.296 331,268.5C 335.401,273.393 339.568,278.393 343.5,283.5 Z"/></g>
<g><path style="opacity:1" fill="#8c9ba2" d="M 282.5,287.5 C 283.564,293.336 283.231,299.002 281.5,304.5C 279.694,303.794 277.861,304.127 276,305.5C 274.601,304.773 273.101,304.273 271.5,304C 268.921,300.599 265.587,297.433 261.5,294.5C 263.207,287.571 262.54,280.904 259.5,274.5C 260.222,274.082 260.722,273.416 261,272.5C 263.944,275.824 266.944,279.157 270,282.5C 270.333,282.167 270.667,281.833 271,281.5C 274.956,283.418 278.79,285.418 282.5,287.5 Z"/></g>
<g><path style="opacity:1" fill="#f5f6f7" d="M 205.5,291.5 C 205.908,296.537 206.574,301.537 207.5,306.5C 199.472,306.831 191.472,306.498 183.5,305.5C 183.137,304.817 182.804,304.15 182.5,303.5C 181.5,298.168 180.5,292.835 179.5,287.5C 187.833,287.5 196.167,287.5 204.5,287.5C 204.232,289.099 204.566,290.432 205.5,291.5 Z"/></g>
<g><path style="opacity:1" fill="#132d41" d="M 307.5,269.5 C 303.726,272.938 300.726,276.938 298.5,281.5C 299.868,282.594 301.035,282.26 302,280.5C 304.521,283.315 306.187,282.982 307,279.5C 307.333,280.833 307.667,282.167 308,283.5C 308.626,281.009 309.459,281.009 310.5,283.5C 316.613,281.401 322.78,281.067 329,282.5C 329.667,281.833 330.333,281.167 331,280.5C 334.269,281.801 337.269,283.467 340,285.5C 341.113,284.695 342.279,284.028 343.5,283.5C 348.479,287.812 353.146,292.479 357.5,297.5C 365.82,290.513 373.82,283.18 381.5,275.5C 381.351,276.552 381.517,277.552 382,278.5C 383.388,277.446 384.888,277.28 386.5,278C 385.833,278.333 385.167,278.667 384.5,279C 385.766,279.309 386.933,279.809 388,280.5C 389.667,279.167 391.333,279.167 393,280.5C 394,277.833 395,277.833 396,280.5C 396.626,278.009 397.459,278.009 398.5,280.5C 400.256,279.593 402.089,279.593 404,280.5C 407.015,279.497 410.015,278.497 413,277.5C 413.667,278.167 414.333,278.833 415,279.5C 415.71,278.027 416.876,277.36 418.5,277.5C 411.489,286.206 404.489,294.873 397.5,303.5C 397.657,302.127 397.49,300.793 397,299.5C 393.596,300.083 389.929,300.749 386,301.5C 383.381,301.273 380.881,300.607 378.5,299.5C 377.328,299.919 376.328,300.585 375.5,301.5C 374.459,299.009 373.626,299.009 373,301.5C 372.333,298.833 371.667,298.833 371,301.5C 370.333,298.833 369.667,298.833 369,301.5C 368.333,298.833 367.667,298.833 367,301.5C 366.667,300.833 366.333,300.167 366,299.5C 365.355,300.646 364.522,301.646 363.5,302.5C 364.167,302.833 364.833,303.167 365.5,303.5C 364.758,304.287 363.925,304.953 363,305.5C 362.755,303.337 361.755,301.67 360,300.5C 359.517,301.448 359.351,302.448 359.5,303.5C 355.107,303.543 354.774,303.043 358.5,302C 357.584,301.626 356.75,301.126 356,300.5C 352.73,301.262 348.897,301.262 344.5,300.5C 339.304,301.768 339.304,302.435 344.5,302.5C 344.688,304.103 344.188,305.437 343,306.5C 340.539,305.782 338.039,305.115 335.5,304.5C 331.555,305.268 327.555,305.768 323.5,306C 323.982,307.008 324.148,308.175 324,309.5C 325.135,309.727 326.302,310.06 327.5,310.5C 326.873,311.417 326.539,312.417 326.5,313.5C 326.5,314.167 326.5,314.833 326.5,315.5C 316.865,305.028 307.365,294.361 298,283.5C 297.333,281.5 297.333,279.5 298,277.5C 300.766,274.223 303.933,271.557 307.5,269.5 Z"/></g>
<g><path style="opacity:1" fill="#808d94" d="M 261.5,294.5 C 265.587,297.433 268.921,300.599 271.5,304C 273.101,304.273 274.601,304.773 276,305.5C 277.861,304.127 279.694,303.794 281.5,304.5C 280.913,310.456 279.579,316.122 277.5,321.5C 276.883,321.611 276.383,321.944 276,322.5C 273.52,320.834 270.687,320.001 267.5,320C 267.833,319.667 268.167,319.333 268.5,319C 264.109,317.906 260.775,315.406 258.5,311.5C 257.575,310.359 256.741,310.359 256,311.5C 254.955,310.627 254.122,309.627 253.5,308.5C 257.192,304.453 259.859,299.786 261.5,294.5 Z"/></g>
<g><path style="opacity:1" fill="#10253d" d="M 397.5,303.5 C 395.61,303.297 394.11,303.963 393,305.5C 391.951,304.483 390.784,304.316 389.5,305C 390.833,305.667 390.833,306.333 389.5,307C 387.527,307.495 385.527,307.662 383.5,307.5C 383.719,306.325 383.386,305.325 382.5,304.5C 381.167,305.833 379.833,305.833 378.5,304.5C 377.201,305.09 376.368,306.09 376,307.5C 368.505,307.262 360.672,306.928 352.5,306.5C 350.392,306.86 348.392,307.527 346.5,308.5C 344.459,307.009 342.959,307.342 342,309.5C 340.556,307.845 338.722,307.178 336.5,307.5C 334.818,309.156 334.152,311.823 334.5,315.5C 331.169,315.422 328.502,314.755 326.5,313.5C 326.539,312.417 326.873,311.417 327.5,310.5C 326.302,310.06 325.135,309.727 324,309.5C 324.148,308.175 323.982,307.008 323.5,306C 327.555,305.768 331.555,305.268 335.5,304.5C 338.039,305.115 340.539,305.782 343,306.5C 344.188,305.437 344.688,304.103 344.5,302.5C 339.304,302.435 339.304,301.768 344.5,300.5C 348.897,301.262 352.73,301.262 356,300.5C 356.75,301.126 357.584,301.626 358.5,302C 354.774,303.043 355.107,303.543 359.5,303.5C 359.351,302.448 359.517,301.448 360,300.5C 361.755,301.67 362.755,303.337 363,305.5C 363.925,304.953 364.758,304.287 365.5,303.5C 364.833,303.167 364.167,302.833 363.5,302.5C 364.522,301.646 365.355,300.646 366,299.5C 366.333,300.167 366.667,300.833 367,301.5C 367.667,298.833 368.333,298.833 369,301.5C 369.667,298.833 370.333,298.833 371,301.5C 371.667,298.833 372.333,298.833 373,301.5C 373.626,299.009 374.459,299.009 375.5,301.5C 376.328,300.585 377.328,299.919 378.5,299.5C 380.881,300.607 383.381,301.273 386,301.5C 389.929,300.749 393.596,300.083 397,299.5C 397.49,300.793 397.657,302.127 397.5,303.5 Z"/></g>
<g><path style="opacity:1" fill="#0e2539" d="M 45.5,292.5 C 51.1277,302.239 59.6277,307.573 71,308.5C 82.8014,307.858 91.6347,302.525 97.5,292.5C 98.2389,292.369 98.9056,292.536 99.5,293C 98.7203,294.073 98.887,295.24 100,296.5C 101.714,295.075 103.047,295.408 104,297.5C 107.411,296.043 110.911,294.71 114.5,293.5C 115.308,293.808 115.975,294.308 116.5,295C 121.418,295.195 126.251,295.695 131,296.5C 132.067,295.809 133.234,295.309 134.5,295C 132.065,293.997 132.398,293.497 135.5,293.5C 137.68,294.273 139.68,295.273 141.5,296.5C 146.997,301.402 153.33,302.736 160.5,300.5C 161.489,303.438 162.156,306.438 162.5,309.5C 161.662,309.842 161.328,310.508 161.5,311.5C 158.427,308.971 156.26,309.638 155,313.5C 153.598,311.027 152.098,311.027 150.5,313.5C 146.764,311.19 146.764,310.523 150.5,311.5C 151.308,311.192 151.975,310.692 152.5,310C 144.031,309.045 135.864,310.212 128,313.5C 111.26,312.857 94.5938,312.857 78,313.5C 74.3757,312.094 70.709,310.76 67,309.5C 66.7216,310.416 66.2216,311.082 65.5,311.5C 64.5595,308.875 63.3928,308.875 62,311.5C 61.6924,310.692 61.1924,310.025 60.5,309.5C 60.1667,310.167 59.8333,310.833 59.5,311.5C 58.4593,309.009 57.6259,309.009 57,311.5C 56.2588,310.359 55.4255,310.359 54.5,311.5C 46.7075,310.136 38.8742,308.803 31,307.5C 30.0546,307.905 29.3879,308.572 29,309.5C 28.3333,306.833 27.6667,306.833 27,309.5C 26.7265,307.671 25.8932,306.171 24.5,305C 24.8333,304.667 25.1667,304.333 25.5,304C 24.7734,302.601 24.2734,301.101 24,299.5C 23.5045,301.473 23.3379,303.473 23.5,305.5C 22.5233,302.713 22.19,299.713 22.5,296.5C 22.3341,291.489 22.5007,286.489 23,281.5C 26.2843,282.718 29.1176,284.218 31.5,286C 31.0426,286.414 30.7093,286.914 30.5,287.5C 32.1083,288.318 33.7749,288.985 35.5,289.5C 36.3065,285.692 37.9732,285.692 40.5,289.5C 39.04,292.951 39.3733,293.617 41.5,291.5C 42.7362,292.246 44.0695,292.579 45.5,292.5 Z"/></g>
<g><path style="opacity:1" fill="#0c1f32" d="M 65.5,311.5 C 65.7058,313.549 66.5391,313.883 68,312.5C 68.9234,313.759 69.7568,315.092 70.5,316.5C 74.0551,316.702 77.7218,316.369 81.5,315.5C 83.1667,316.5 84.8333,317.5 86.5,318.5C 96.9087,317.197 107.409,317.197 118,318.5C 118.689,317.643 119.522,316.977 120.5,316.5C 124.539,318.283 128.039,317.616 131,314.5C 131.308,315.308 131.808,315.975 132.5,316.5C 137.325,312.886 141.991,312.886 146.5,316.5C 147.833,313.833 149.167,313.833 150.5,316.5C 151.167,315.833 151.833,315.167 152.5,314.5C 153.696,314.846 153.696,315.346 152.5,316C 155.442,316.815 158.275,316.315 161,314.5C 161.483,313.552 161.649,312.552 161.5,311.5C 161.328,310.508 161.662,309.842 162.5,309.5C 164.661,316.67 166.661,324.004 168.5,331.5C 182.211,328.73 195.211,330.564 207.5,337C 208.71,338.039 209.71,339.206 210.5,340.5C 210.167,340.5 209.833,340.5 209.5,340.5C 206.486,340.871 203.486,340.371 200.5,339C 199.167,338 199.167,337 200.5,336C 198.919,335.293 197.419,334.46 196,333.5C 195.779,336.943 194.779,337.276 193,334.5C 192,335.5 191,336.5 190,337.5C 189.83,335.285 189.163,333.285 188,331.5C 186.807,332.978 186.307,334.312 186.5,335.5C 185.757,334.092 184.923,332.759 184,331.5C 182.355,331.693 180.521,331.86 178.5,332C 177.747,333.487 176.914,333.654 176,332.5C 175,333.167 174,333.833 173,334.5C 170.667,333.167 168.333,331.833 166,330.5C 164.955,331.373 164.122,332.373 163.5,333.5C 162.166,331.841 160.499,330.508 158.5,329.5C 156.998,333.374 156.331,333.041 156.5,328.5C 154.856,328.714 153.356,328.38 152,327.5C 151.692,328.308 151.192,328.975 150.5,329.5C 148.297,329.413 146.13,329.413 144,329.5C 143.026,327.122 142.359,327.456 142,330.5C 141.333,327.833 140.667,327.833 140,330.5C 138.044,330.216 135.877,330.216 133.5,330.5C 133.307,334.449 132.807,334.449 132,330.5C 131.641,333.544 130.974,333.878 130,331.5C 128.311,333.32 128.145,335.32 129.5,337.5C 129.5,337.833 129.5,338.167 129.5,338.5C 118.509,326.945 105.842,324.611 91.5,331.5C 90.9101,330.234 90.4101,328.901 90,327.5C 89.3333,328.833 88.3333,329.833 87,330.5C 86.2588,329.359 85.4255,329.359 84.5,330.5C 83.3044,330.154 83.3044,329.654 84.5,329C 83.8333,328.833 83.1667,328.667 82.5,328.5C 79.8333,329.833 77.1667,329.833 74.5,328.5C 70.9551,329.969 67.2884,330.969 63.5,331.5C 63.1667,330.833 62.8333,330.167 62.5,329.5C 60.7219,329.569 58.8886,329.903 57,330.5C 55.6667,329.833 54.6667,328.833 54,327.5C 53.3333,330.167 52.6667,330.167 52,327.5C 51.3741,329.991 50.5407,329.991 49.5,327.5C 46.17,329.055 42.67,330.055 39,330.5C 38.3333,327.833 37.6667,327.833 37,330.5C 36.2588,329.359 35.4255,329.359 34.5,330.5C 33.4593,328.009 32.6259,328.009 32,330.5C 30.4934,326.764 29.6601,326.764 29.5,330.5C 25.8936,322.654 23.8936,314.321 23.5,305.5C 23.3379,303.473 23.5045,301.473 24,299.5C 24.2734,301.101 24.7734,302.601 25.5,304C 25.1667,304.333 24.8333,304.667 24.5,305C 25.8932,306.171 26.7265,307.671 27,309.5C 27.6667,306.833 28.3333,306.833 29,309.5C 29.3879,308.572 30.0546,307.905 31,307.5C 38.8742,308.803 46.7075,310.136 54.5,311.5C 55.4255,310.359 56.2588,310.359 57,311.5C 57.6259,309.009 58.4593,309.009 59.5,311.5C 59.8333,310.833 60.1667,310.167 60.5,309.5C 61.1924,310.025 61.6924,310.692 62,311.5C 63.3928,308.875 64.5595,308.875 65.5,311.5 Z"/></g>
<g><path style="opacity:1" fill="#0e2538" d="M 397.5,303.5 C 392.87,310.429 387.536,316.763 381.5,322.5C 380.67,320.176 379.337,318.176 377.5,316.5C 372.602,318.781 367.435,320.114 362,320.5C 356.721,319.699 351.221,319.532 345.5,320C 347.833,320.333 350.167,320.667 352.5,321C 349.16,321.453 345.826,321.953 342.5,322.5C 340.161,322.331 337.994,321.664 336,320.5C 337.075,321.885 337.575,324.218 337.5,327.5C 333.862,323.526 330.195,319.526 326.5,315.5C 326.5,314.833 326.5,314.167 326.5,313.5C 328.502,314.755 331.169,315.422 334.5,315.5C 334.152,311.823 334.818,309.156 336.5,307.5C 338.722,307.178 340.556,307.845 342,309.5C 342.959,307.342 344.459,307.009 346.5,308.5C 348.392,307.527 350.392,306.86 352.5,306.5C 360.672,306.928 368.505,307.262 376,307.5C 376.368,306.09 377.201,305.09 378.5,304.5C 379.833,305.833 381.167,305.833 382.5,304.5C 383.386,305.325 383.719,306.325 383.5,307.5C 385.527,307.662 387.527,307.495 389.5,307C 390.833,306.333 390.833,305.667 389.5,305C 390.784,304.316 391.951,304.483 393,305.5C 394.11,303.963 395.61,303.297 397.5,303.5 Z"/></g>
<g><path style="opacity:1" fill="#0c1f37" d="M 161.5,311.5 C 161.649,312.552 161.483,313.552 161,314.5C 158.275,316.315 155.442,316.815 152.5,316C 153.696,315.346 153.696,314.846 152.5,314.5C 151.833,315.167 151.167,315.833 150.5,316.5C 149.167,313.833 147.833,313.833 146.5,316.5C 141.991,312.886 137.325,312.886 132.5,316.5C 131.808,315.975 131.308,315.308 131,314.5C 128.039,317.616 124.539,318.283 120.5,316.5C 119.522,316.977 118.689,317.643 118,318.5C 107.409,317.197 96.9087,317.197 86.5,318.5C 84.8333,317.5 83.1667,316.5 81.5,315.5C 77.7218,316.369 74.0551,316.702 70.5,316.5C 69.7568,315.092 68.9234,313.759 68,312.5C 66.5391,313.883 65.7058,313.549 65.5,311.5C 66.2216,311.082 66.7216,310.416 67,309.5C 70.709,310.76 74.3757,312.094 78,313.5C 94.5938,312.857 111.26,312.857 128,313.5C 135.864,310.212 144.031,309.045 152.5,310C 151.975,310.692 151.308,311.192 150.5,311.5C 146.764,310.523 146.764,311.19 150.5,313.5C 152.098,311.027 153.598,311.027 155,313.5C 156.26,309.638 158.427,308.971 161.5,311.5 Z"/></g>
<g><path style="opacity:1" fill="#112539" d="M 205.5,291.5 C 205.949,295.229 207.616,298.396 210.5,301C 216.477,302.72 219.144,300.554 218.5,294.5C 218.833,294.5 219.167,294.5 219.5,294.5C 222.988,313.132 229.155,330.799 238,347.5C 239.707,349.037 241.207,350.704 242.5,352.5C 239.991,354.157 237.825,353.824 236,351.5C 235.626,352.416 235.126,353.25 234.5,354C 231.524,354.705 228.858,355.871 226.5,357.5C 224.773,351.379 221.939,345.712 218,340.5C 216.393,335.846 214.893,331.18 213.5,326.5C 207.537,325.17 201.204,324.504 194.5,324.5C 187.991,324.5 181.658,324.834 175.5,325.5C 174.25,325.423 173.417,324.756 173,323.5C 172.057,320.176 171.224,316.843 170.5,313.5C 171.239,313.631 171.906,313.464 172.5,313C 171.932,310.316 170.932,307.816 169.5,305.5C 172.366,304.792 175.2,304.125 178,303.5C 178.414,303.957 178.914,304.291 179.5,304.5C 180.281,303.271 180.781,301.938 181,300.5C 181.232,301.737 181.732,302.737 182.5,303.5C 182.804,304.15 183.137,304.817 183.5,305.5C 191.472,306.498 199.472,306.831 207.5,306.5C 206.574,301.537 205.908,296.537 205.5,291.5 Z"/></g>
<g><path style="opacity:1" fill="#6c7980" d="M 253.5,308.5 C 254.122,309.627 254.955,310.627 256,311.5C 256.741,310.359 257.575,310.359 258.5,311.5C 260.775,315.406 264.109,317.906 268.5,319C 268.167,319.333 267.833,319.667 267.5,320C 270.687,320.001 273.52,320.834 276,322.5C 276.383,321.944 276.883,321.611 277.5,321.5C 275.021,332.114 270.688,341.781 264.5,350.5C 263.761,350.631 263.094,350.464 262.5,350C 263.833,348.667 265.167,347.333 266.5,346C 266.167,345.833 265.833,345.667 265.5,345.5C 263.527,346.64 261.693,347.973 260,349.5C 259,348.167 258,348.167 257,349.5C 255.5,348.667 254.333,347.5 253.5,346C 256.55,345.321 259.55,344.488 262.5,343.5C 263.086,343.709 263.586,344.043 264,344.5C 265.262,342.697 266.929,341.364 269,340.5C 268.743,338.025 267.743,338.025 266,340.5C 262.541,339.578 259.041,339.745 255.5,341C 255.833,341.333 256.167,341.667 256.5,342C 254,342.833 251.5,343.667 249,344.5C 247.245,343.387 245.745,343.72 244.5,345.5C 238.692,336.377 234.358,326.544 231.5,316C 239.621,315.571 246.954,313.071 253.5,308.5 Z"/></g>
<g><path style="opacity:1" fill="#0c1f32" d="M 381.5,322.5 C 375.403,330.44 369.07,338.273 362.5,346C 359.97,347.422 357.303,347.755 354.5,347C 348.624,340.628 342.958,334.128 337.5,327.5C 337.575,324.218 337.075,321.885 336,320.5C 337.994,321.664 340.161,322.331 342.5,322.5C 345.826,321.953 349.16,321.453 352.5,321C 350.167,320.667 347.833,320.333 345.5,320C 351.221,319.532 356.721,319.699 362,320.5C 367.435,320.114 372.602,318.781 377.5,316.5C 379.337,318.176 380.67,320.176 381.5,322.5 Z"/></g>
<g><path style="opacity:1" fill="#9da7ad" d="M 175.5,325.5 C 181.658,324.834 187.991,324.5 194.5,324.5C 201.204,324.504 207.537,325.17 213.5,326.5C 200.913,325.52 188.246,325.187 175.5,325.5 Z"/></g>
<g><path style="opacity:1" fill="#08192b" d="M 91.5,331.5 C 87.485,334.516 84.1517,338.183 81.5,342.5C 77.6205,345.944 74.7871,349.61 73,353.5C 72.6258,352.584 72.1258,351.75 71.5,351C 73.158,350.275 73.658,349.108 73,347.5C 72,348.833 71,350.167 70,351.5C 69.3333,348.833 68.6667,348.833 68,351.5C 67.3333,348.833 66.6667,348.833 66,351.5C 62.3666,351.517 58.5332,351.35 54.5,351C 56.158,350.275 56.658,349.108 56,347.5C 55.6667,348.167 55.3333,348.833 55,349.5C 53.1284,345.735 52.2951,345.735 52.5,349.5C 51.2624,345.689 50.5958,345.689 50.5,349.5C 46.1008,350.561 41.9341,349.895 38,347.5C 37.5357,348.094 37.369,348.761 37.5,349.5C 33.4879,343.8 30.8213,337.467 29.5,330.5C 29.6601,326.764 30.4934,326.764 32,330.5C 32.6259,328.009 33.4593,328.009 34.5,330.5C 35.4255,329.359 36.2588,329.359 37,330.5C 37.6667,327.833 38.3333,327.833 39,330.5C 42.67,330.055 46.17,329.055 49.5,327.5C 50.5407,329.991 51.3741,329.991 52,327.5C 52.6667,330.167 53.3333,330.167 54,327.5C 54.6667,328.833 55.6667,329.833 57,330.5C 58.8886,329.903 60.7219,329.569 62.5,329.5C 62.8333,330.167 63.1667,330.833 63.5,331.5C 67.2884,330.969 70.9551,329.969 74.5,328.5C 77.1667,329.833 79.8333,329.833 82.5,328.5C 83.1667,328.667 83.8333,328.833 84.5,329C 83.3044,329.654 83.3044,330.154 84.5,330.5C 85.4255,329.359 86.2588,329.359 87,330.5C 88.3333,329.833 89.3333,328.833 90,327.5C 90.4101,328.901 90.9101,330.234 91.5,331.5 Z"/></g>
<g><path style="opacity:1" fill="#f7f7f7" d="M 129.5,338.5 C 134.13,345.065 136.13,352.398 135.5,360.5C 132.669,373.995 124.669,382.662 111.5,386.5C 88.09,385.923 76.9234,373.923 78,350.5C 78.9064,347.69 80.0731,345.024 81.5,342.5C 84.1517,338.183 87.485,334.516 91.5,331.5C 105.842,324.611 118.509,326.945 129.5,338.5 Z"/></g>
<g><path style="opacity:1" fill="#081931" d="M 163.5,333.5 C 164.666,335.166 164.666,336.833 163.5,338.5C 162.305,336.703 160.638,335.703 158.5,335.5C 158.36,337.124 159.027,338.29 160.5,339C 157.574,339.218 154.74,339.718 152,340.5C 150.333,340.5 148.667,340.5 147,340.5C 146.309,338.109 145.309,338.109 144,340.5C 140.9,338.441 137.9,338.775 135,341.5C 134.781,340.062 134.281,338.729 133.5,337.5C 132.135,338.807 130.802,338.807 129.5,337.5C 128.145,335.32 128.311,333.32 130,331.5C 130.974,333.878 131.641,333.544 132,330.5C 132.807,334.449 133.307,334.449 133.5,330.5C 135.877,330.216 138.044,330.216 140,330.5C 140.667,327.833 141.333,327.833 142,330.5C 142.359,327.456 143.026,327.122 144,329.5C 146.13,329.413 148.297,329.413 150.5,329.5C 151.192,328.975 151.692,328.308 152,327.5C 153.356,328.38 154.856,328.714 156.5,328.5C 156.331,333.041 156.998,333.374 158.5,329.5C 160.499,330.508 162.166,331.841 163.5,333.5 Z"/></g>
<g><path style="opacity:1" fill="#091931" d="M 209.5,340.5 C 209.389,341.117 209.056,341.617 208.5,342C 200.388,341.885 192.054,341.218 183.5,340C 180.969,337.345 179.136,338.179 178,342.5C 177.338,340.187 176.838,337.854 176.5,335.5C 173.594,335.903 171.761,337.569 171,340.5C 170.667,339.5 170.333,338.5 170,337.5C 169.667,337.833 169.333,338.167 169,338.5C 167.065,336.806 165.231,335.139 163.5,333.5C 164.122,332.373 164.955,331.373 166,330.5C 168.333,331.833 170.667,333.167 173,334.5C 174,333.833 175,333.167 176,332.5C 176.914,333.654 177.747,333.487 178.5,332C 180.521,331.86 182.355,331.693 184,331.5C 184.923,332.759 185.757,334.092 186.5,335.5C 186.307,334.312 186.807,332.978 188,331.5C 189.163,333.285 189.83,335.285 190,337.5C 191,336.5 192,335.5 193,334.5C 194.779,337.276 195.779,336.943 196,333.5C 197.419,334.46 198.919,335.293 200.5,336C 199.167,337 199.167,338 200.5,339C 203.486,340.371 206.486,340.871 209.5,340.5 Z"/></g>
<g><path style="opacity:1" fill="#071828" d="M 163.5,333.5 C 165.231,335.139 167.065,336.806 169,338.5C 169.333,338.167 169.667,337.833 170,337.5C 170.333,338.5 170.667,339.5 171,340.5C 171.761,337.569 173.594,335.903 176.5,335.5C 176.838,337.854 177.338,340.187 178,342.5C 179.136,338.179 180.969,337.345 183.5,340C 192.054,341.218 200.388,341.885 208.5,342C 209.056,341.617 209.389,341.117 209.5,340.5C 209.833,340.5 210.167,340.5 210.5,340.5C 220.321,347.465 225.488,357.131 226,369.5C 226.499,365.514 226.666,361.514 226.5,357.5C 228.858,355.871 231.524,354.705 234.5,354C 235.126,353.25 235.626,352.416 236,351.5C 237.825,353.824 239.991,354.157 242.5,352.5C 243.833,353.167 245.167,353.833 246.5,354.5C 246.953,355.458 247.619,356.292 248.5,357C 251.952,357.885 255.286,358.718 258.5,359.5C 244.078,378.82 224.745,386.987 200.5,384C 188.667,381.9 178,377.4 168.5,370.5C 170.821,370.229 172.821,370.896 174.5,372.5C 177.691,372.473 180.525,373.806 183,376.5C 185.096,375.285 184.929,374.451 182.5,374C 183.308,373.692 183.975,373.192 184.5,372.5C 193.147,371.335 201.814,371.168 210.5,372C 208.405,372.556 208.238,373.056 210,373.5C 211.932,371.822 214.098,371.322 216.5,372C 216.167,372.333 215.833,372.667 215.5,373C 216.931,373.465 218.097,374.299 219,375.5C 219.333,374.833 219.667,374.167 220,373.5C 221.401,375.192 223.234,375.859 225.5,375.5C 225.002,372.513 224.502,369.513 224,366.5C 223.667,366.833 223.333,367.167 223,367.5C 222.29,366.027 221.124,365.36 219.5,365.5C 219.762,364.022 219.429,362.689 218.5,361.5C 215.432,363.457 212.099,363.957 208.5,363C 206.508,362.426 205.008,361.259 204,359.5C 203.751,360.624 203.251,361.624 202.5,362.5C 200.276,357.703 197.609,357.37 194.5,361.5C 192.864,360.696 191.364,359.696 190,358.5C 187.223,359.447 185.223,358.447 184,355.5C 182.582,359.616 181.248,359.949 180,356.5C 179.867,362.165 178.2,362.832 175,358.5C 173.437,359.102 173.604,359.935 175.5,361C 174.451,361.492 173.451,361.326 172.5,360.5C 171.23,361.562 170.063,362.562 169,363.5C 168.717,360.258 167.883,359.924 166.5,362.5C 164.958,363.747 163.458,363.747 162,362.5C 161.333,363.167 160.667,363.833 160,364.5C 157.596,362.012 155.762,359.678 154.5,357.5C 153.808,358.025 153.308,358.692 153,359.5C 152.311,358.643 151.478,357.977 150.5,357.5C 149.23,358.562 148.063,359.562 147,360.5C 144.306,358.976 141.64,357.31 139,355.5C 138.355,356.646 137.522,357.646 136.5,358.5C 137.981,359.944 137.648,360.611 135.5,360.5C 136.13,352.398 134.13,345.065 129.5,338.5C 129.5,338.167 129.5,337.833 129.5,337.5C 130.802,338.807 132.135,338.807 133.5,337.5C 134.281,338.729 134.781,340.062 135,341.5C 137.9,338.775 140.9,338.441 144,340.5C 145.309,338.109 146.309,338.109 147,340.5C 148.667,340.5 150.333,340.5 152,340.5C 154.74,339.718 157.574,339.218 160.5,339C 159.027,338.29 158.36,337.124 158.5,335.5C 160.638,335.703 162.305,336.703 163.5,338.5C 164.666,336.833 164.666,335.166 163.5,333.5 Z"/></g>
<g><path style="opacity:1" fill="#5e6a76" d="M 264.5,350.5 C 263.241,354.025 261.241,357.025 258.5,359.5C 255.286,358.718 251.952,357.885 248.5,357C 247.619,356.292 246.953,355.458 246.5,354.5C 246.79,351.215 246.123,348.215 244.5,345.5C 245.745,343.72 247.245,343.387 249,344.5C 251.5,343.667 254,342.833 256.5,342C 256.167,341.667 255.833,341.333 255.5,341C 259.041,339.745 262.541,339.578 266,340.5C 267.743,338.025 268.743,338.025 269,340.5C 266.929,341.364 265.262,342.697 264,344.5C 263.586,344.043 263.086,343.709 262.5,343.5C 259.55,344.488 256.55,345.321 253.5,346C 254.333,347.5 255.5,348.667 257,349.5C 258,348.167 259,348.167 260,349.5C 261.693,347.973 263.527,346.64 265.5,345.5C 265.833,345.667 266.167,345.833 266.5,346C 265.167,347.333 263.833,348.667 262.5,350C 263.094,350.464 263.761,350.631 264.5,350.5 Z"/></g>
<g><path style="opacity:1" fill="#0c1d2b" d="M 387.5,365.5 C 387.631,364.761 387.464,364.094 387,363.5C 385.05,363.751 382.884,364.418 380.5,365.5C 379.719,366.729 379.219,368.062 379,369.5C 378.667,368.833 378.333,368.167 378,367.5C 376.475,367.888 374.808,367.888 373,367.5C 371.933,368.191 370.766,368.691 369.5,369C 370.416,369.278 371.082,369.778 371.5,370.5C 363.167,370.5 354.833,370.5 346.5,370.5C 351.679,369.742 357.012,369.075 362.5,368.5C 364.56,369.528 366.56,369.528 368.5,368.5C 367.975,367.808 367.308,367.308 366.5,367C 367.939,366.009 368.939,364.676 369.5,363C 368.004,362.493 366.837,362.993 366,364.5C 365.583,363.244 364.75,362.577 363.5,362.5C 367.502,361.071 371.002,358.738 374,355.5C 381,346.833 388,338.167 395,329.5C 393.822,341.843 391.322,353.843 387.5,365.5 Z"/></g>
<g><path style="opacity:1" fill="#041321" d="M 363.5,362.5 C 364.75,362.577 365.583,363.244 366,364.5C 366.837,362.993 368.004,362.493 369.5,363C 368.939,364.676 367.939,366.009 366.5,367C 367.308,367.308 367.975,367.808 368.5,368.5C 366.56,369.528 364.56,369.528 362.5,368.5C 357.012,369.075 351.679,369.742 346.5,370.5C 345.447,373.608 344.114,376.608 342.5,379.5C 341.636,379.298 340.636,378.964 339.5,378.5C 339.709,377.914 340.043,377.414 340.5,377C 338.567,376.749 336.734,376.249 335,375.5C 333.594,376.668 332.428,376.335 331.5,374.5C 325.76,375.898 319.593,376.898 313,377.5C 311.6,376.884 310.1,376.551 308.5,376.5C 301.514,377.176 294.514,377.676 287.5,378C 290.833,378.333 294.167,378.667 297.5,379C 291.135,379.513 284.801,379.179 278.5,378C 281.167,377.667 283.833,377.333 286.5,377C 279.833,376.667 273.167,376.333 266.5,376C 267.5,375.667 268.5,375.333 269.5,375C 266.167,374.333 262.833,374.333 259.5,375C 260.833,375.333 262.167,375.667 263.5,376C 262.667,376.167 261.833,376.333 261,376.5C 259.113,376.031 257.613,375.031 256.5,373.5C 254.303,376.695 251.303,378.695 247.5,379.5C 255.157,373.508 261.824,366.508 267.5,358.5C 286.491,357.667 305.491,357.167 324.5,357C 329.308,355.764 333.308,353.264 336.5,349.5C 341.062,354.232 346.062,358.398 351.5,362C 355.486,362.499 359.486,362.666 363.5,362.5 Z"/></g>
<g><path style="opacity:1" fill="#051522" d="M 81.5,342.5 C 80.0731,345.024 78.9064,347.69 78,350.5C 76.9234,373.923 88.09,385.923 111.5,386.5C 108.025,389.335 104.358,389.669 100.5,387.5C 97.6815,387.739 94.8482,388.072 92,388.5C 90.2382,388.056 90.4049,387.556 92.5,387C 90.2626,385.144 88.4293,385.644 87,388.5C 84.9592,387.577 82.7925,387.244 80.5,387.5C 80.5875,384.402 80.0875,384.068 79,386.5C 78.6667,385.5 78.3333,384.5 78,383.5C 77.3678,385.531 76.2012,387.198 74.5,388.5C 72.5129,385.65 70.3463,383.65 68,382.5C 67.6667,383.167 67.3333,383.833 67,384.5C 65.9505,383.483 64.7839,383.316 63.5,384C 65.0414,385.371 66.3747,386.871 67.5,388.5C 66.7611,388.631 66.0944,388.464 65.5,388C 53.6024,376.95 44.2691,364.117 37.5,349.5C 37.369,348.761 37.5357,348.094 38,347.5C 41.9341,349.895 46.1008,350.561 50.5,349.5C 50.5958,345.689 51.2624,345.689 52.5,349.5C 52.2951,345.735 53.1284,345.735 55,349.5C 55.3333,348.833 55.6667,348.167 56,347.5C 56.658,349.108 56.158,350.275 54.5,351C 58.5332,351.35 62.3666,351.517 66,351.5C 66.6667,348.833 67.3333,348.833 68,351.5C 68.6667,348.833 69.3333,348.833 70,351.5C 71,350.167 72,348.833 73,347.5C 73.658,349.108 73.158,350.275 71.5,351C 72.1258,351.75 72.6258,352.584 73,353.5C 74.7871,349.61 77.6205,345.944 81.5,342.5 Z"/></g>
<g><path style="opacity:1" fill="#f5f6f6" d="M 346.5,370.5 C 354.833,370.5 363.167,370.5 371.5,370.5C 369.594,376.815 367.261,382.982 364.5,389C 356.147,389.832 347.813,389.665 339.5,388.5C 340.513,385.812 341.513,383.146 342.5,380.5C 342.5,380.167 342.5,379.833 342.5,379.5C 344.114,376.608 345.447,373.608 346.5,370.5 Z"/></g>
<g><path style="opacity:1" fill="#000c1e" d="M 342.5,379.5 C 342.5,379.833 342.5,380.167 342.5,380.5C 340.03,382.087 337.364,383.587 334.5,385C 335.5,386 336.5,387 337.5,388C 337,388.167 336.5,388.333 336,388.5C 334.265,387.318 333.265,385.651 333,383.5C 329.034,383.47 324.867,383.636 320.5,384C 323.167,384.333 325.833,384.667 328.5,385C 325.574,385.218 322.74,385.718 320,386.5C 319.333,383.833 318.667,383.833 318,386.5C 317.641,383.456 316.974,383.122 316,385.5C 313.667,384.167 311.333,382.833 309,381.5C 308.086,385.185 307.419,384.852 307,380.5C 306.834,384.511 306,385.011 304.5,382C 303.207,381.51 301.873,381.343 300.5,381.5C 300.657,382.873 300.49,384.207 300,385.5C 299,385.167 298,384.833 297,384.5C 293.51,386.347 289.677,387.347 285.5,387.5C 284.5,387.333 283.5,387.167 282.5,387C 283.696,386.346 283.696,385.846 282.5,385.5C 281.459,387.991 280.626,387.991 280,385.5C 278.383,386.641 276.55,387.474 274.5,388C 268.112,388.173 262.112,388.34 256.5,388.5C 255.749,387.624 255.249,386.624 255,385.5C 254.581,386.672 253.915,387.672 253,388.5C 249.697,388.01 246.364,387.677 243,387.5C 242.667,388.167 242.333,388.833 242,389.5C 240.933,388.809 239.766,388.309 238.5,388C 240.332,387.252 241.999,386.252 243.5,385C 242.748,384.329 242.414,383.496 242.5,382.5C 243.965,381.263 245.632,380.263 247.5,379.5C 251.303,378.695 254.303,376.695 256.5,373.5C 257.613,375.031 259.113,376.031 261,376.5C 261.833,376.333 262.667,376.167 263.5,376C 262.167,375.667 260.833,375.333 259.5,375C 262.833,374.333 266.167,374.333 269.5,375C 268.5,375.333 267.5,375.667 266.5,376C 273.167,376.333 279.833,376.667 286.5,377C 283.833,377.333 281.167,377.667 278.5,378C 284.801,379.179 291.135,379.513 297.5,379C 294.167,378.667 290.833,378.333 287.5,378C 294.514,377.676 301.514,377.176 308.5,376.5C 310.1,376.551 311.6,376.884 313,377.5C 319.593,376.898 325.76,375.898 331.5,374.5C 332.428,376.335 333.594,376.668 335,375.5C 336.734,376.249 338.567,376.749 340.5,377C 340.043,377.414 339.709,377.914 339.5,378.5C 340.636,378.964 341.636,379.298 342.5,379.5 Z"/></g>
<g><path style="opacity:1" fill="#06101c" d="M 387.5,365.5 C 385.136,375.265 381.802,384.598 377.5,393.5C 374.785,391.042 372.119,391.375 369.5,394.5C 364.552,394.664 359.552,394.331 354.5,393.5C 353.797,395.504 352.297,397.504 350,399.5C 349.667,398.5 349.333,397.5 349,396.5C 348.56,398.076 347.727,399.41 346.5,400.5C 347.167,401.167 347.833,401.833 348.5,402.5C 346.833,403.167 345.167,403.833 343.5,404.5C 347.787,404.973 351.787,405.973 355.5,407.5C 347.167,407.5 338.833,407.5 330.5,407.5C 331.687,406.466 332.52,405.133 333,403.5C 333.483,404.448 333.649,405.448 333.5,406.5C 335.308,406.509 336.975,406.009 338.5,405C 335.668,403.092 336.001,402.259 339.5,402.5C 339.693,406.449 340.193,406.449 341,402.5C 342.043,406.226 342.543,405.893 342.5,401.5C 340.058,401.881 339.391,401.214 340.5,399.5C 338.208,397.332 336.375,397.998 335,401.5C 334.333,398.833 333.667,398.833 333,401.5C 332.667,399.167 332.333,396.833 332,394.5C 329.116,397.849 325.949,398.183 322.5,395.5C 321.353,395.818 320.519,396.484 320,397.5C 319.692,396.692 319.192,396.025 318.5,395.5C 315.343,395.939 312.01,395.939 308.5,395.5C 305.833,395.667 303.167,395.833 300.5,396C 298.598,396.199 297.098,397.033 296,398.5C 293.815,396.585 291.315,396.418 288.5,398C 289.26,401.667 290.76,402.167 293,399.5C 293.772,400.849 294.939,401.682 296.5,402C 291.167,403 285.833,404 280.5,405C 279.646,406.022 278.646,406.855 277.5,407.5C 273.366,406.985 269.366,405.985 265.5,404.5C 261.909,405.438 258.576,404.772 255.5,402.5C 254.5,402.833 253.833,403.5 253.5,404.5C 254.246,405.736 254.579,407.07 254.5,408.5C 252.147,406.14 250.147,403.473 248.5,400.5C 240.324,399.179 231.991,399.179 223.5,400.5C 223.624,401.107 223.957,401.44 224.5,401.5C 227.567,406.741 231.233,411.574 235.5,416C 244.167,416.667 252.833,416.667 261.5,416C 260.944,415.617 260.611,415.117 260.5,414.5C 262.484,414.484 263.484,415.484 263.5,417.5C 262.558,419.879 261.225,422.046 259.5,424C 260.337,425.011 260.67,426.178 260.5,427.5C 256.793,427.792 253.293,428.792 250,430.5C 249.667,430.167 249.333,429.833 249,429.5C 248.535,430.931 247.701,432.097 246.5,433C 250.474,434.499 254.474,434.666 258.5,433.5C 260.593,433.486 262.426,434.152 264,435.5C 264.309,434.234 264.809,433.067 265.5,432C 270.411,430.508 275.411,430.174 280.5,431C 281.91,431.368 282.91,432.201 283.5,433.5C 293.264,435.052 302.93,435.385 312.5,434.5C 316.5,434.667 320.5,434.833 324.5,435C 328.177,436.203 331.844,435.703 335.5,433.5C 337.483,433.815 338.816,434.815 339.5,436.5C 312.523,437.632 285.523,437.798 258.5,437C 239.671,433.838 224.505,424.671 213,409.5C 208.709,403.085 204.542,396.585 200.5,390C 215.183,391.667 229.183,389.167 242.5,382.5C 242.414,383.496 242.748,384.329 243.5,385C 241.999,386.252 240.332,387.252 238.5,388C 239.766,388.309 240.933,388.809 242,389.5C 242.333,388.833 242.667,388.167 243,387.5C 246.364,387.677 249.697,388.01 253,388.5C 253.915,387.672 254.581,386.672 255,385.5C 255.249,386.624 255.749,387.624 256.5,388.5C 262.112,388.34 268.112,388.173 274.5,388C 276.55,387.474 278.383,386.641 280,385.5C 280.626,387.991 281.459,387.991 282.5,385.5C 283.696,385.846 283.696,386.346 282.5,387C 283.5,387.167 284.5,387.333 285.5,387.5C 289.677,387.347 293.51,386.347 297,384.5C 298,384.833 299,385.167 300,385.5C 300.49,384.207 300.657,382.873 300.5,381.5C 301.873,381.343 303.207,381.51 304.5,382C 306,385.011 306.834,384.511 307,380.5C 307.419,384.852 308.086,385.185 309,381.5C 311.333,382.833 313.667,384.167 316,385.5C 316.974,383.122 317.641,383.456 318,386.5C 318.667,383.833 319.333,383.833 320,386.5C 322.74,385.718 325.574,385.218 328.5,385C 325.833,384.667 323.167,384.333 320.5,384C 324.867,383.636 329.034,383.47 333,383.5C 333.265,385.651 334.265,387.318 336,388.5C 336.5,388.333 337,388.167 337.5,388C 336.5,387 335.5,386 334.5,385C 337.364,383.587 340.03,382.087 342.5,380.5C 341.513,383.146 340.513,385.812 339.5,388.5C 347.813,389.665 356.147,389.832 364.5,389C 367.261,382.982 369.594,376.815 371.5,370.5C 371.082,369.778 370.416,369.278 369.5,369C 370.766,368.691 371.933,368.191 373,367.5C 374.808,367.888 376.475,367.888 378,367.5C 378.333,368.167 378.667,368.833 379,369.5C 379.219,368.062 379.719,366.729 380.5,365.5C 382.884,364.418 385.05,363.751 387,363.5C 387.464,364.094 387.631,364.761 387.5,365.5 Z"/></g>
<g><path style="opacity:1" fill="#020f20" d="M 168.5,370.5 C 169.48,383.98 176.813,392.313 190.5,395.5C 192.498,396.148 194.498,396.981 196.5,398C 191.58,398.933 186.913,399.433 182.5,399.5C 180.833,398.167 179.167,396.833 177.5,395.5C 174.495,398.42 172.662,397.754 172,393.5C 171,396.167 170,396.167 169,393.5C 167.388,393.952 166.388,395.285 166,397.5C 165.667,396.5 165.333,395.5 165,394.5C 164.217,396.433 164.717,397.933 166.5,399C 165.552,399.483 164.552,399.649 163.5,399.5C 163.66,397.801 163.494,396.134 163,394.5C 162.517,395.448 162.351,396.448 162.5,397.5C 158.833,397.5 155.167,397.5 151.5,397.5C 151.307,393.551 150.807,393.551 150,397.5C 149.296,394.054 147.963,394.054 146,397.5C 143.399,394.81 140.232,393.977 136.5,395C 137.833,395.333 139.167,395.667 140.5,396C 138.645,396.422 136.811,396.922 135,397.5C 133.756,395.424 131.923,394.424 129.5,394.5C 128.997,389.5 128.664,389.833 128.5,395.5C 126.508,395.672 124.842,395.005 123.5,393.5C 122.158,394.902 121.324,394.569 121,392.5C 119.513,393.253 119.346,394.086 120.5,395C 118.598,395.199 117.098,396.033 116,397.5C 114.302,396.267 112.302,395.6 110,395.5C 108.167,395.667 106.333,395.833 104.5,396C 105.5,396.333 106.5,396.667 107.5,397C 104.854,397.497 102.187,397.664 99.5,397.5C 99.1341,392.532 98.6341,392.866 98,398.5C 97.6667,397.833 97.3333,397.167 97,396.5C 95.2041,397.767 93.3707,397.767 91.5,396.5C 90.5224,396.977 89.6891,397.643 89,398.5C 88.3109,397.643 87.4776,396.977 86.5,396.5C 85.4787,398.188 84.1454,399.521 82.5,400.5C 79.053,398.603 75.7196,396.437 72.5,394C 70.6266,392.296 68.9599,390.463 67.5,388.5C 66.3747,386.871 65.0414,385.371 63.5,384C 64.7839,383.316 65.9505,383.483 67,384.5C 67.3333,383.833 67.6667,383.167 68,382.5C 70.3463,383.65 72.5129,385.65 74.5,388.5C 76.2012,387.198 77.3678,385.531 78,383.5C 78.3333,384.5 78.6667,385.5 79,386.5C 80.0875,384.068 80.5875,384.402 80.5,387.5C 82.7925,387.244 84.9592,387.577 87,388.5C 88.4293,385.644 90.2626,385.144 92.5,387C 90.4049,387.556 90.2382,388.056 92,388.5C 94.8482,388.072 97.6815,387.739 100.5,387.5C 104.358,389.669 108.025,389.335 111.5,386.5C 124.669,382.662 132.669,373.995 135.5,360.5C 137.648,360.611 137.981,359.944 136.5,358.5C 137.522,357.646 138.355,356.646 139,355.5C 141.64,357.31 144.306,358.976 147,360.5C 148.063,359.562 149.23,358.562 150.5,357.5C 151.478,357.977 152.311,358.643 153,359.5C 153.308,358.692 153.808,358.025 154.5,357.5C 155.762,359.678 157.596,362.012 160,364.5C 160.667,363.833 161.333,363.167 162,362.5C 163.458,363.747 164.958,363.747 166.5,362.5C 167.883,359.924 168.717,360.258 169,363.5C 170.063,362.562 171.23,361.562 172.5,360.5C 173.451,361.326 174.451,361.492 175.5,361C 173.604,359.935 173.437,359.102 175,358.5C 178.2,362.832 179.867,362.165 180,356.5C 181.248,359.949 182.582,359.616 184,355.5C 185.223,358.447 187.223,359.447 190,358.5C 191.364,359.696 192.864,360.696 194.5,361.5C 197.609,357.37 200.276,357.703 202.5,362.5C 203.251,361.624 203.751,360.624 204,359.5C 205.008,361.259 206.508,362.426 208.5,363C 212.099,363.957 215.432,363.457 218.5,361.5C 219.429,362.689 219.762,364.022 219.5,365.5C 221.124,365.36 222.29,366.027 223,367.5C 223.333,367.167 223.667,366.833 224,366.5C 224.502,369.513 225.002,372.513 225.5,375.5C 223.234,375.859 221.401,375.192 220,373.5C 219.667,374.167 219.333,374.833 219,375.5C 218.097,374.299 216.931,373.465 215.5,373C 215.833,372.667 216.167,372.333 216.5,372C 214.098,371.322 211.932,371.822 210,373.5C 208.238,373.056 208.405,372.556 210.5,372C 201.814,371.168 193.147,371.335 184.5,372.5C 183.975,373.192 183.308,373.692 182.5,374C 184.929,374.451 185.096,375.285 183,376.5C 180.525,373.806 177.691,372.473 174.5,372.5C 172.821,370.896 170.821,370.229 168.5,370.5 Z"/></g>
<g><path style="opacity:1" fill="#020d1a" d="M 190.5,395.5 C 192.527,395.338 194.527,395.505 196.5,396C 200.624,401.746 204.624,407.58 208.5,413.5C 173.501,428.278 138.501,428.111 103.5,413C 96.0684,409.368 89.0684,405.201 82.5,400.5C 84.1454,399.521 85.4787,398.188 86.5,396.5C 87.4776,396.977 88.3109,397.643 89,398.5C 89.6891,397.643 90.5224,396.977 91.5,396.5C 93.3707,397.767 95.2041,397.767 97,396.5C 97.3333,397.167 97.6667,397.833 98,398.5C 98.6341,392.866 99.1341,392.532 99.5,397.5C 102.187,397.664 104.854,397.497 107.5,397C 106.5,396.667 105.5,396.333 104.5,396C 106.333,395.833 108.167,395.667 110,395.5C 112.302,395.6 114.302,396.267 116,397.5C 117.098,396.033 118.598,395.199 120.5,395C 119.346,394.086 119.513,393.253 121,392.5C 121.324,394.569 122.158,394.902 123.5,393.5C 124.842,395.005 126.508,395.672 128.5,395.5C 128.664,389.833 128.997,389.5 129.5,394.5C 131.923,394.424 133.756,395.424 135,397.5C 136.811,396.922 138.645,396.422 140.5,396C 139.167,395.667 137.833,395.333 136.5,395C 140.232,393.977 143.399,394.81 146,397.5C 147.963,394.054 149.296,394.054 150,397.5C 150.807,393.551 151.307,393.551 151.5,397.5C 155.167,397.5 158.833,397.5 162.5,397.5C 162.351,396.448 162.517,395.448 163,394.5C 163.494,396.134 163.66,397.801 163.5,399.5C 164.552,399.649 165.552,399.483 166.5,399C 164.717,397.933 164.217,396.433 165,394.5C 165.333,395.5 165.667,396.5 166,397.5C 166.388,395.285 167.388,393.952 169,393.5C 170,396.167 171,396.167 172,393.5C 172.662,397.754 174.495,398.42 177.5,395.5C 179.167,396.833 180.833,398.167 182.5,399.5C 186.913,399.433 191.58,398.933 196.5,398C 194.498,396.981 192.498,396.148 190.5,395.5 Z"/></g>
<g><path style="opacity:1" fill="#010719" d="M 377.5,393.5 C 372.889,407.887 364.889,420.054 353.5,430C 349.188,432.99 344.521,435.157 339.5,436.5C 338.816,434.815 337.483,433.815 335.5,433.5C 331.844,435.703 328.177,436.203 324.5,435C 320.5,434.833 316.5,434.667 312.5,434.5C 302.93,435.385 293.264,435.052 283.5,433.5C 282.91,432.201 281.91,431.368 280.5,431C 275.411,430.174 270.411,430.508 265.5,432C 264.809,433.067 264.309,434.234 264,435.5C 262.426,434.152 260.593,433.486 258.5,433.5C 254.474,434.666 250.474,434.499 246.5,433C 247.701,432.097 248.535,430.931 249,429.5C 249.333,429.833 249.667,430.167 250,430.5C 253.293,428.792 256.793,427.792 260.5,427.5C 260.67,426.178 260.337,425.011 259.5,424C 261.225,422.046 262.558,419.879 263.5,417.5C 263.484,415.484 262.484,414.484 260.5,414.5C 258.167,412.833 256.167,410.833 254.5,408.5C 254.579,407.07 254.246,405.736 253.5,404.5C 253.833,403.5 254.5,402.833 255.5,402.5C 258.576,404.772 261.909,405.438 265.5,404.5C 269.366,405.985 273.366,406.985 277.5,407.5C 278.646,406.855 279.646,406.022 280.5,405C 285.833,404 291.167,403 296.5,402C 294.939,401.682 293.772,400.849 293,399.5C 290.76,402.167 289.26,401.667 288.5,398C 291.315,396.418 293.815,396.585 296,398.5C 297.098,397.033 298.598,396.199 300.5,396C 303.167,395.833 305.833,395.667 308.5,395.5C 312.01,395.939 315.343,395.939 318.5,395.5C 319.192,396.025 319.692,396.692 320,397.5C 320.519,396.484 321.353,395.818 322.5,395.5C 325.949,398.183 329.116,397.849 332,394.5C 332.333,396.833 332.667,399.167 333,401.5C 333.667,398.833 334.333,398.833 335,401.5C 336.375,397.998 338.208,397.332 340.5,399.5C 339.391,401.214 340.058,401.881 342.5,401.5C 342.543,405.893 342.043,406.226 341,402.5C 340.193,406.449 339.693,406.449 339.5,402.5C 336.001,402.259 335.668,403.092 338.5,405C 336.975,406.009 335.308,406.509 333.5,406.5C 333.649,405.448 333.483,404.448 333,403.5C 332.52,405.133 331.687,406.466 330.5,407.5C 327.188,412.804 323.521,417.804 319.5,422.5C 318.957,422.56 318.624,422.893 318.5,423.5C 326.991,424.821 335.324,424.821 343.5,423.5C 348.647,419.021 352.647,413.687 355.5,407.5C 351.787,405.973 347.787,404.973 343.5,404.5C 345.167,403.833 346.833,403.167 348.5,402.5C 347.833,401.833 347.167,401.167 346.5,400.5C 347.727,399.41 348.56,398.076 349,396.5C 349.333,397.5 349.667,398.5 350,399.5C 352.297,397.504 353.797,395.504 354.5,393.5C 359.552,394.331 364.552,394.664 369.5,394.5C 372.119,391.375 374.785,391.042 377.5,393.5 Z"/></g>
<g><path style="opacity:1" fill="#888e94" d="M 248.5,400.5 C 240.316,400.174 232.316,400.508 224.5,401.5C 223.957,401.44 223.624,401.107 223.5,400.5C 231.991,399.179 240.324,399.179 248.5,400.5 Z"/></g>
<g><path style="opacity:1" fill="#f6f6f6" d="M 248.5,400.5 C 250.147,403.473 252.147,406.14 254.5,408.5C 256.167,410.833 258.167,412.833 260.5,414.5C 260.611,415.117 260.944,415.617 261.5,416C 252.833,416.667 244.167,416.667 235.5,416C 231.233,411.574 227.567,406.741 224.5,401.5C 232.316,400.508 240.316,400.174 248.5,400.5 Z"/></g>
<g><path style="opacity:1" fill="#f4f5f5" d="M 330.5,407.5 C 338.833,407.5 347.167,407.5 355.5,407.5C 352.647,413.687 348.647,419.021 343.5,423.5C 335.316,423.826 327.316,423.492 319.5,422.5C 323.521,417.804 327.188,412.804 330.5,407.5 Z"/></g>
<g><path style="opacity:1" fill="#494f58" d="M 319.5,422.5 C 327.316,423.492 335.316,423.826 343.5,423.5C 335.324,424.821 326.991,424.821 318.5,423.5C 318.624,422.893 318.957,422.56 319.5,422.5 Z"/></g>
</svg>
